<?xml version="1.0" standalone="no"?>
<!DOCTYPE svg PUBLIC "-//W3C//DTD SVG 1.1//EN" "http://www.w3.org/Graphics/SVG/1.1/DTD/svg11.dtd" >
<svg xmlns="http://www.w3.org/2000/svg">
<metadata>Generated by IcoMoon</metadata>
<defs>
<font id="squint" horiz-adv-x="1024">
<font-face units-per-em="1024" ascent="960" descent="-64" />
<missing-glyph horiz-adv-x="1024" />
<glyph unicode="&#x20;" horiz-adv-x="512" d="" />
<glyph unicode="&#x2022;" glyph-name="asterisco" horiz-adv-x="896" d="M540.65 882.75l-40.312-370.312 373.125 104.062 24.375-170.625-357.187-29.062 232.5-305.625-161.25-88.125-165 339.375-150-339.375-165 88.125 226.875 305.625-353.438 29.062 27.188 170.625 366.562-104.062-40.312 370.312z" />
<glyph unicode="&#xe900;" glyph-name="soporte" d="M512-64c-282.77 0-512 229.23-512 512s229.23 512 512 512c282.77 0 512-229.23 512-512s-229.23-512-512-512zM726.624 330.37h-24.076v142.545h24.076c38.25 0 68.708-32.33 68.708-71.273s-30.458-71.273-68.708-71.273zM321.459 330.37h-24.083c-38.25 0-68.708 32.33-68.708 71.273s31.167 71.273 68.708 71.273h24.083v-142.545zM848.457 401.643c0 62.455-43.917 114.624-102 124.176v17.634c0 132.993-104.118 241.004-232.333 241.004-128.208 0-233.041-108.011-233.041-241.004v-16.9c-59.5-8.082-105.541-60.986-105.541-124.911 0-69.803 54.541-126.38 121.833-126.38h31.167c25.5 0 45.333 21.308 45.333 47.025v157.975c0 24.247-17.708 44.086-40.375 47.025v16.165c0 102.868 80.75 186.631 179.916 186.631s179.916-83.764 179.916-186.631v-15.43c-24.792-0.735-43.909-21.308-43.909-47.025v-157.975c0-19.839 12.035-37.473 29.743-44.086-21.958-38.208-60.208-63.925-105.541-67.599-2.833 13.226-14.167 23.513-28.333 23.513h-63.75c-15.583 0-29.042-13.226-29.042-30.126v-33.799c0-16.165 12.75-30.126 29.042-30.126h63.75c14.167 0 26.215 10.287 28.333 24.982 68.715 3.674 126.791 48.495 152.999 110.215 67.291 0 121.833 56.577 121.833 125.645z" />
<glyph unicode="&#xe901;" glyph-name="dislike" d="M885.029 448c29.257 0 43.886 21.943 43.886 43.886v329.143c0 29.257-21.943 43.886-43.886 43.886h-95.086v-416.914h95.086zM694.857 864.914h-482.743c-21.943 0-43.886-14.629-43.886-36.571l-65.829-416.914c0-14.629 0-21.943 7.314-36.571s21.943-14.629 29.257-21.943h270.629c29.257 0 43.886-21.943 43.886-43.886v-190.171c0-43.886 29.257-73.143 65.829-87.771l168.229 380.343 7.314 453.486zM204.8 960v0h680.229c73.143 0 138.971-65.829 138.971-138.971v-329.143c0-80.457-65.829-138.971-138.971-138.971h-109.714l-175.543-387.657c-14.629-21.943-29.257-29.257-51.2-29.257-102.4 0-182.857 80.457-182.857 182.857v138.971h-219.429c-7.314 0-14.629 0-21.943 0-36.571 7.314-73.143 21.943-95.086 58.514-21.943 29.257-29.257 65.829-29.257 102.4l65.829 416.914c14.629 73.143 73.143 124.343 138.971 124.343z" />
<glyph unicode="&#xe902;" glyph-name="like-heart" d="M512 12.8c-12.8 0-21.333 4.267-29.867 12.8l-375.467 375.467c-51.2 51.2-81.067 123.733-81.067 196.267s29.867 145.067 81.067 196.267 119.467 81.067 192 81.067 145.067-29.867 196.267-81.067l17.067-17.067 17.067 17.067c51.2 51.2 119.467 81.067 196.267 81.067v0c72.533 0 145.067-29.867 196.267-81.067v0c106.667-106.667 106.667-285.867 0-392.533l-375.467-375.467c-12.8-8.533-21.333-12.8-34.133-12.8zM298.667 789.333c-46.933 0-98.133-17.067-132.267-55.467-76.8-76.8-76.8-196.267 0-273.067l345.6-345.6 345.6 345.6c38.4 38.4 55.467 85.333 55.467 136.533s-21.333 98.133-55.467 136.533v0c-34.133 34.133-81.067 55.467-132.267 55.467v0c-51.2 0-98.133-21.333-136.533-55.467v0 0l-42.667-46.933c-17.067-17.067-42.667-17.067-59.733 0l-46.933 46.933c-38.4 38.4-89.6 55.467-140.8 55.467z" />
<glyph unicode="&#xe903;" glyph-name="mensajes" d="M0 960v-734.226h548.245l335.602-289.774v289.774h140.154v734.226h-1024zM70.952 889.275h882.109v-592.764h-140.166v-205.679l-238.22 205.679h-503.722v592.764z" />
<glyph unicode="&#xe904;" glyph-name="happy-face" horiz-adv-x="1520" d="M453.075 944.46c22.861 0.387 44.372-3.684 64.535-12.212s37.803-19.869 52.922-34.026c15.119-14.156 27.144-31.136 36.077-50.939s13.588-40.234 13.967-61.29c0.399-22.165-3.222-43.289-10.864-63.373s-18.758-37.732-33.348-52.945c-14.59-15.213-31.521-27.416-50.792-36.611s-40.338-13.985-63.199-14.372c-22.861-0.387-44.372 3.684-64.535 12.212s-37.808 20.147-52.937 34.857c-15.129 14.71-27.159 31.967-36.092 51.77s-13.598 40.788-13.997 62.953c-0.379 21.057 3.538 41.632 11.751 61.725s19.334 37.465 33.362 52.114c14.028 14.649 30.964 26.575 50.807 35.78s40.624 13.99 62.341 14.357zM982.305 959.975c22.861 0.387 44.372-3.684 64.535-12.211s37.518-19.873 52.065-34.037c14.547-14.164 26.287-31.147 35.219-50.949s13.588-40.23 13.967-61.285c0.399-22.163-3.222-43.286-10.864-63.368s-18.758-37.729-33.348-52.94c-14.59-15.211-31.521-27.414-50.792-36.608s-40.338-13.984-63.199-14.371c-22.861-0.387-44.372 3.684-64.535 12.211s-37.808 20.145-52.937 34.854c-15.129 14.709-27.159 31.964-36.092 51.766s-13.598 40.784-13.997 62.947c-0.379 21.055 3.538 41.628 11.751 61.72s19.334 37.461 33.362 52.109c14.028 14.648 30.964 26.573 50.807 35.777s41.195 13.999 64.056 14.385zM764.542-63.796c-137.313-2.419-271.367 16.646-402.164 57.193s-251.589 99.877-362.378 177.991l88.824 191.013c98.352-69.311 204.509-121.851 318.474-157.62s231.787-52.583 353.471-50.439c121.684 2.143 238.853 23.096 351.511 62.857s216.933 96.008 312.829 168.74l95.376-187.769c-108.020-81.968-226.685-145.515-356.001-190.645s-262.628-68.903-399.942-71.322z" />
<glyph unicode="&#xe905;" glyph-name="high-performance" horiz-adv-x="1536" d="M782.441 257.255c-59.733 17.067-110.933 0-145.067-51.2s-25.6-110.933 17.067-145.067c25.6-25.6 59.733-34.133 102.4-25.6 102.4 8.533 384 34.133 477.867 42.667 8.533 0 8.533 8.533 0 17.067-85.333 25.6-384 128-452.267 162.133zM91.241-32.878c-25.6 0-51.2 17.067-59.733 42.667-17.067 68.267-25.6 136.533-25.6 204.8 0 409.6 324.267 733.867 733.867 733.867 401.067 0 733.867-332.8 733.867-733.867 0-68.267-8.533-128-25.6-196.267-8.533-34.133-42.667-51.2-76.8-42.667s-51.2 42.667-42.667 76.8c8.533 51.2 17.067 102.4 17.067 162.133 0 341.333-273.067 614.4-605.867 614.4-341.333 0-614.4-281.6-614.4-614.4 0-59.733 8.533-110.933 25.6-170.667 8.533-34.133-8.533-68.267-42.667-76.8-8.533 0-8.533 0-17.067 0z" />
<glyph unicode="&#xe906;" glyph-name="low-performance" horiz-adv-x="1497" d="M745.884 256.174c-63.015-23.631-338.708-126.031-425.354-157.538-7.877-7.877-7.877-15.754 0-15.754 86.646-7.877 346.585-23.631 441.108-39.385 39.385-7.877 70.892 0 94.523 23.631 39.385 39.385 47.262 94.523 23.631 141.785-23.631 55.138-78.769 70.892-133.908 47.262zM1383.915-3.765c23.631 0 47.262 15.754 55.138 39.385 15.754 63.015 23.631 126.031 23.631 189.046 0 378.092-299.323 677.415-677.415 677.415-370.215 0-677.415-307.2-677.415-677.415 0-63.015 7.877-118.154 23.631-181.169 7.877-31.508 39.385-47.262 70.892-39.385s47.262 39.385 39.385 70.892c-7.877 47.262-7.877 94.523-7.877 149.662 0 315.077 252.062 567.138 559.262 567.138s559.262-252.062 559.262-567.138c0-55.138-7.877-102.4-23.631-157.538-7.877-31.508 7.877-63.015 39.385-70.892 7.877 0 15.754 0 15.754 0z" />
<glyph unicode="&#xe907;" glyph-name="counter-filled" horiz-adv-x="878" d="M424.285 696.686c-169.434 0-307.256-144.396-307.256-321.887s137.833-321.77 307.256-321.77c169.311 0 307.144 144.279 307.144 321.77 0 12.956-10.037 23.471-22.405 23.471h-262.335v274.944c-0.011 12.956-10.037 23.471-22.405 23.471zM438.857 772.724c217.065 0 392.624-176.733 392.624-395.276 0-218.531-175.559-394.903-392.624-394.903-217.192 0-392.624 176.372-392.624 394.903 0 218.543 175.432 395.276 392.624 395.276zM436.696 960c-23.66 0-45.262-3.561-62.854-10.182-8.796-3.305-16.794-7.191-23.833-13.452-7.051-6.272-13.731-16.291-13.731-28.73 0-12.451 6.681-22.47 13.731-28.73 7.039-6.26 15.037-10.508 23.833-13.824 8.981-3.375 18.84-5.958 29.612-7.633l-19.857-41.449c-216.106-27.45-383.597-213.713-383.597-438.551 0-243.677 196.699-441.449 438.857-441.449 242.042 0 438.857 197.772 438.857 441.449 0 224.861-167.538 411.148-383.597 438.551l-19.857 41.449c10.738 1.676 20.655 4.271 29.612 7.633 8.807 3.316 16.794 7.564 23.833 13.824 7.051 6.26 14.090 16.279 14.090 28.73 0 12.439-7.039 22.458-14.090 28.73-7.039 6.26-15.026 10.147-23.833 13.452-17.592 6.621-38.824 10.182-62.484 10.182h-4.693z" />
<glyph unicode="&#xe908;" glyph-name="info" d="M614.781 419.205v-129.393c0-33.178 0.332-52.752 0.995-58.724 3.318-29.86 12.276-44.79 26.874-44.79 3.318 0 11.612 1.659 24.883 4.977 3.318 1.327 8.294 1.991 14.93 1.991 25.215 0 37.822-10.948 37.822-32.846 0-9.29-4.147-17.252-12.442-23.888s-18.745-9.953-31.353-9.953c-10.617 0-26.708 1.493-48.273 4.479s-37.657 4.479-48.273 4.479c-17.252 0-36.495-1.327-57.729-3.981-25.879-3.318-43.131-4.977-51.757-4.977-26.542 0-39.813 11.28-39.813 33.841 0 21.897 11.28 32.846 33.841 32.846 5.308 0 13.105-0.995 23.39-2.986s18.082-2.986 23.39-2.986c15.925 0 25.547 21.233 28.865 63.701v254.804c-3.318 41.804-13.271 62.706-29.86 62.706-5.308 0-12.773-1.161-22.395-3.484s-16.755-3.484-21.4-3.484c-23.888 0-35.832 10.617-35.832 31.85 0 22.561 14.598 33.841 43.794 33.841 12.608 0 21.565-0.332 26.874-0.995 21.234-2.654 34.836-3.981 40.808-3.981 5.308 0 13.437 0.829 24.386 2.488s19.077 2.488 24.386 2.488c19.243 0 28.865-12.939 28.865-38.818 0-2.654-0.332-6.635-0.995-11.944s-0.995-9.29-0.995-11.944c-0.664-5.308-1.327-25.878-1.991-61.71-0.664-27.206-0.995-55.075-0.995-83.608zM563.024 679.981c-15.262 0-28.367 5.474-39.315 16.423s-16.423 24.054-16.423 39.315c0 15.262 5.474 28.201 16.423 38.818s24.054 15.925 39.315 15.925c15.262 0 28.367-5.308 39.315-15.925s16.423-23.556 16.423-38.818c0-15.262-5.474-28.367-16.423-39.315s-24.054-16.423-39.315-16.423zM552.96-67.584c-262.128 0-474.624 212.496-474.624 474.624s212.496 474.624 474.624 474.624c262.128 0 474.624-212.496 474.624-474.624s-212.496-474.624-474.624-474.624zM552.96-39.936c246.858 0 446.976 200.118 446.976 446.976s-200.118 446.976-446.976 446.976c-246.858 0-446.976-200.118-446.976-446.976s200.118-446.976 446.976-446.976z" />
<glyph unicode="&#xe909;" glyph-name="live" horiz-adv-x="1575" d="M1496.615 218.368l-258.048 139.861c-12.209 6.485-26.782 5.717-38.282-1.792-11.658-7.936-18.747-21.675-18.747-36.437v-170.667c0-70.571-53.012-128-118.154-128h-866.462c-65.142 0-118.154 57.429-118.154 128v597.333c0 70.571 53.012 128 118.154 128h866.462c65.142 0 118.154-57.429 118.154-128v-170.667c0-14.763 7.089-28.501 18.668-36.352 11.5-7.68 26.073-8.448 38.282-1.792l258.127 139.776v-459.264zM1556.716 783.019c-11.658 7.765-26.073 8.533-38.282 1.792l-258.127-139.776v101.632c0 117.675-88.379 213.333-196.923 213.333h-866.462c-108.544 0-196.923-95.659-196.923-213.333v-597.333c0-117.675 88.379-213.333 196.923-213.333h866.462c108.544 0 196.923 95.659 196.923 213.333v101.632l258.048-139.861c12.288-6.571 26.703-5.803 38.282 1.792 11.658 7.936 18.747 21.675 18.747 36.437v597.333c0 14.763-7.089 28.501-18.668 36.352z" />
<glyph unicode="&#xe90a;" glyph-name="live-filled" horiz-adv-x="1638" d="M1618.96 783.002c-12.042 7.765-27.116 8.533-39.731 1.792l-268.534-139.776v101.632c0 117.675-91.914 213.333-204.8 213.333h-901.12c-112.886 0-204.8-95.659-204.8-213.333v-597.333c0-117.675 91.914-213.333 204.8-213.333h901.12c112.886 0 204.8 95.659 204.8 213.333v101.632l268.452-139.861c12.698-6.571 27.771-5.803 39.731 1.792 12.124 7.936 19.497 21.675 19.497 36.437v597.333c0 14.763-7.373 28.501-19.415 36.352z" />
<glyph unicode="&#xe90b;" glyph-name="happy" horiz-adv-x="1050" d="M408.433 590.988c0-15.678-13.071-28.382-29.17-28.382h-58.354c-16.114 0-29.17 12.717-29.17 28.382v56.777c0 15.678 13.057 28.382 29.17 28.382h58.354c16.114 0 29.17-12.717 29.17-28.382v-56.777zM758.519 590.988c0-15.678-13.055-28.382-29.167-28.382h-58.348c-16.112 0-29.181 12.717-29.181 28.382v56.777c0 15.678 13.069 28.382 29.181 28.382h58.348c16.112 0 29.167-12.717 29.167-28.382v-56.777zM927.179 956.011h-804.1c-67.975 0-123.078-53.679-123.078-119.923v-779.491c0-66.209 55.103-119.923 123.078-119.923h804.1c67.963 0.011 123.078 53.702 123.078 119.923v779.491c0 66.243-55.115 119.923-123.078 119.923zM927.179 908.040c40.703 0 73.845-32.28 73.845-71.951v-779.491c0-39.671-33.141-71.951-73.845-71.951h-804.1c-40.715 0-73.845 32.28-73.845 71.951v779.491c0 39.671 33.13 71.951 73.845 71.951h804.1zM535.612 136.826c-184.33 0-266.656 154.277-270.078 160.84-6.47 12.446-2.020 28.040 9.951 34.738 11.948 6.721 26.873 2.139 33.355-10.271 2.955-5.555 72.515-134.015 226.772-134.015 147.786 0 235.204 134.55 236.057 135.899 7.498 11.79 22.774 15.059 34.114 7.281 11.34-7.815 14.505-23.64 7.031-35.467-4.099-6.527-102.355-159.005-277.202-159.005z" />
<glyph unicode="&#xe90c;" glyph-name="neutral" horiz-adv-x="993" d="M851.553 940.555h-739.932c-61.643 0-111.618-52.82-111.618-117.974v-766.852c0-65.165 49.975-117.996 111.618-117.996h729.285c61.654 0 111.607 52.832 111.607 117.996v582.78l-44.651-37.145v-545.634c0-39.058-30.012-70.814-66.956-70.814h-729.285c-36.922 0-66.967 31.755-66.967 70.814v766.852c0 39.036 30.044 70.78 66.967 70.78h729.285zM360.914 474.533c0-13.031-9.986-23.597-22.326-23.597h-44.651c-12.318 0-22.315 10.566-22.315 23.597v47.183c0 13.031 9.997 23.597 22.315 23.597h44.651c12.329 0 22.326-10.566 22.326-23.597v-47.183zM680.917 474.533c0-13.031-9.986-23.597-22.336-23.597h-44.651c-12.297 0-22.326 10.566-22.326 23.597v47.183c0 13.031 9.997 23.597 22.326 23.597h44.651c12.339 0 22.336-10.566 22.336-23.597v-47.183zM579.505 196.296h-212.994c-12.35 0-22.336 10.555-22.336 23.62 0 13.019 9.986 23.586 22.336 23.586h212.983c12.329 0 22.347-10.555 22.347-23.586 0-13.076-9.986-23.62-22.336-23.62zM853.881 860.357c-32.461-47.014-71.896-114.789-71.896-147.253 0-47.734 32.238-86.579 71.896-86.579s71.896 38.844 71.896 86.579c0 32.475-39.445 100.239-71.896 147.253zM857.427 566.143c-66.541 0-120.678 65.187-120.678 145.329 0 72.175 86.993 192.231 104.453 215.558l16.225 21.718 16.204-21.718c17.471-23.327 104.474-143.383 104.474-215.558 0-80.142-54.127-145.329-120.678-145.329z" />
<glyph unicode="&#xe90d;" glyph-name="bad" d="M900.523 956.024h-780.982c-66.021 0-119.54-53.519-119.54-119.54v-777.004c0-66.021 53.519-119.54 119.54-119.54h780.982c66.009 0.011 119.54 53.508 119.54 119.54v777.004c0 66.021-53.531 119.54-119.54 119.54zM900.523 908.206c39.533 0 71.722-32.177 71.722-71.722v-777.004c0-39.544-32.189-71.722-71.722-71.722h-780.982c-39.544 0-71.722 32.177-71.722 71.722v777.004c0 39.544 32.177 71.722 71.722 71.722h780.982zM601.497 188.493c2.043-8.591 13.090-38.884 66.267-38.884 41.924 0 53.259 30.377 55.486 38.087v66.377h-121.754v-65.58zM667.764 105.354c-80.846 0-110.373 50.979-114.701 77.947l-0.254 3.21v67.594h-335.481c-13.447 0-24.344 9.881-24.344 22.101s10.908 22.133 24.344 22.133h554.61v-115.174l-0.439-2.066c-5.517-26.203-34.305-75.744-103.735-75.744zM391.692 436.185c-5.541 0-11.071 2.119-15.317 6.347l-149.291 148.74c-8.606 8.57-8.72 22.585-0.249 31.292 8.472 8.717 22.298 8.812 30.894 0.252l149.281-148.73c8.606-8.57 8.72-22.585 0.249-31.292-4.277-4.406-9.922-6.609-15.566-6.609zM242.405 436.185c-5.655 0-11.3 2.203-15.578 6.609-8.462 8.717-8.348 22.721 0.249 31.291l149.293 148.735c8.607 8.56 22.434 8.455 30.896-0.252 8.462-8.717 8.348-22.721-0.249-31.291l-149.293-148.746c-4.257-4.238-9.788-6.346-15.319-6.346zM750.094 436.185c-5.51 0-11.041 2.119-15.318 6.347l-149.296 148.74c-8.607 8.57-8.71 22.585-0.249 31.292 8.472 8.707 22.299 8.822 30.885 0.252l149.296-148.73c8.607-8.57 8.71-22.585 0.259-31.292-4.288-4.406-9.932-6.609-15.577-6.609zM600.819 436.185c-5.676 0-11.321 2.203-15.588 6.608-8.452 8.717-8.369 22.72 0.249 31.291l149.304 148.732c8.597 8.57 22.445 8.455 30.876-0.252 8.452-8.717 8.369-22.72-0.238-31.291l-149.284-148.743c-4.257-4.238-9.778-6.346-15.319-6.346z" />
<glyph unicode="&#xe90e;" glyph-name="notes-filled" horiz-adv-x="1390" d="M1360.457 9.143h-819.2c-16.15 0-29.257-16.384-29.257-36.571s13.107-36.571 29.257-36.571h819.2c16.165 0 29.257 16.384 29.257 36.571s-13.093 36.571-29.257 36.571zM833.144 723.416l-119.475 119.067 49.631 49.643 119.040-119.502-49.196-49.207zM942.724 792.615c-0.056 0.084-0.127 0.155-0.211 0.211l-159 159.051c-6.142 6.074-14.717 8.984-23.277 7.901-6.297-0.675-12.186-3.459-16.698-7.901l-705.874-706.034c-4.175-4.176-6.944-9.532-7.899-15.381l-29.433-188.912c-2.361-15.353 8.166-29.707 23.516-32.069 2.839-0.45 5.721-0.45 8.546 0l188.883 29.876c5.777 0.829 11.146 3.444 15.363 7.465l705.874 706.034c11.048 10.924 11.132 28.723 0.211 39.759z" />
<glyph unicode="&#xe90f;" glyph-name="notes" horiz-adv-x="1216" d="M414.478-3.445c-15.257 0-27.639-13.564-27.639-30.278s12.382-30.278 27.639-30.278h773.884c15.257 0 27.639 13.564 27.639 30.278s-12.382 30.278-27.639 30.278h-773.884zM662.355 790.404l117.036-128.68-579.542-634.891-139.064-24.131 22.028 152.811 579.542 634.891zM750.454 886.914l117.036-128.68-48.368-52.986-117.464 128.195 48.796 53.47zM747.441 959.761c-6.191-0.727-11.968-3.739-16.417-8.508l-693.98-760.255c-4.118-4.496-6.841-10.279-7.78-16.562l-28.938-203.42c-2.322-16.532 8.029-32.003 23.12-34.547 2.778-0.469 5.624-0.469 8.416 0l185.691 32.17c5.68 0.908 10.959 3.709 15.118 8.054l693.994 760.24c10.848 11.763 10.931 30.944 0.193 42.828-0.069 0.076-0.138 0.151-0.193 0.227l-156.338 171.265c-6.039 6.525-14.469 9.674-22.885 8.508z" />
<glyph unicode="&#xe910;" glyph-name="others" horiz-adv-x="964" d="M874.535-21.333c-24.583 0-44.615 19.157-44.615 42.667s20.032 42.667 44.615 42.667c24.583 0 44.615-19.157 44.615-42.667s-20.032-42.667-44.615-42.667zM517.615 149.333c-24.583 0-44.615 19.157-44.615 42.667s20.032 42.667 44.615 42.667c24.583 0 44.615-19.157 44.615-42.667s-20.032-42.667-44.615-42.667zM874.535 405.333c24.583 0 44.615-19.157 44.615-42.667s-20.032-42.667-44.615-42.667c-24.583 0-44.615 19.157-44.615 42.667s20.032 42.667 44.615 42.667zM874.535 106.667c-30.427 0-57.286-14.677-73.436-36.992l-199.295 95.317c3.034 8.533 5.041 17.536 5.041 27.051s-2.008 18.517-5.041 27.051l199.295 95.275c16.106-22.315 42.964-37.035 73.436-37.035 49.21 0 89.23 38.272 89.23 85.333s-40.020 85.333-89.23 85.333c-49.21 0-89.23-38.272-89.23-85.333 0-2.645 0.58-5.163 0.803-7.765l-208.888-99.883c-15.838 13.696-36.629 22.315-59.65 22.315-49.21 0-89.23-38.272-89.23-85.333s40.020-85.333 89.23-85.333c23.021 0 43.812 8.576 59.65 22.315l208.888-99.883c-0.268-2.603-0.803-5.12-0.803-7.765 0-47.061 40.020-85.333 89.23-85.333s89.23 38.272 89.23 85.333c0 47.061-40.020 85.333-89.23 85.333zM43.022 250.472l39.598 633.539 341.843-25.358-323.113-47.811c-5.531-0.819-10.434-3.612-13.66-7.633s-4.484-9.086-3.52-13.964l109.953-553.705-151.102 14.932zM393.078 214.763l-145.822-32.396-118.124 594.851 713.395 105.602 79.783-354.639c2.263-10.091 13.199-16.719 24.639-14.634 11.314 2.048 18.689 11.841 16.426 21.932l-83.806 372.364c-2.221 9.83-12.99 16.57-23.968 14.708l-262.898-38.986-528.101 39.173c-5.741 0.596-11.23-1.229-15.504-4.506-4.274-3.314-6.872-8.006-7.165-13.033l-41.903-670.255c-0.629-9.905 7.543-18.469 18.605-19.549l183.073-18.134 8.171-41.034c1.006-5.101 4.316-9.57 9.219-12.4 3.436-2.011 7.375-3.016 11.398-3.016 1.718 0 3.394 0.186 5.112 0.559l167.611 37.236c11.23 2.532 18.060 12.586 15.253 22.602-2.807 9.942-14.205 16.049-25.393 13.554z" />
<glyph unicode="&#xe911;" glyph-name="others-filled" horiz-adv-x="768" d="M614.471 267.21c4.070 17.685 20.529 28.448 36.626 23.977s25.894-22.553 21.825-40.238c-4.070-17.685-20.529-28.481-36.626-23.977-16.097 4.471-25.894 22.553-21.825 40.238zM555.296 10.347c4.070 17.685 20.529 28.481 36.626 24.011 16.097-4.504 25.894-22.553 21.825-40.238s-20.529-28.448-36.626-24.011c-16.097 4.504-25.894 22.553-21.825 40.238zM409.546 187.561c-4.070-17.685-20.529-28.481-36.626-24.011-16.097 4.504-25.894 22.553-21.825 40.238s20.529 28.448 36.626 24.011c16.097-4.504 25.894-22.553 21.825-40.238zM585.26 275.324c-0.452-1.954-0.512-3.974-0.844-5.994l-154.131-37.125c-7.988 13.214-20.107 23.481-35.209 27.687-4.612 1.258-9.224 1.788-13.837 1.855l-23.212-4.736c-17.333-7.617-31.26-23.746-36.174-45.074-8.169-35.403 11.425-71.502 43.65-80.477 15.072-4.206 30.175-1.523 42.956 5.928l119.494-113.197c-0.633-1.921-1.417-3.709-1.869-5.696-8.169-35.403 11.425-71.502 43.65-80.444 32.225-9.008 65.083 12.519 73.222 47.922 8.169 35.403-11.395 71.502-43.62 80.477-19.956 5.531-40.093-0.596-54.532-14.473l-114.008 108.031c3.437 5.862 6.33 12.287 7.988 19.44s1.899 14.274 1.387 21.262l147.047 35.403c6.692-19.705 21.734-35.701 41.69-41.265 32.225-8.942 65.083 12.552 73.252 47.988 7.416 32.191-8.26 64.746-35.36 77.165l-64.691-13.214c-7.898-8.313-13.987-18.944-16.851-31.462zM217.39 865.083l-143.094-26.434c-4.055-0.749-7.649-3.304-10.015-6.983-2.212-3.441-3.011-7.733-2.55-11.889-0.922-3.475-1.352-7.085-0.737-10.867l46.479-277.524 34.836-219.035-110.776 13.66 29.061 579.574 243.978-22.551-87.183-17.952zM706.268 586.741l-9.431 52.221-48.66 290.809c-2.15 12.808-13.24 21.256-24.791 18.872l-204.165-42.002-371.866 34.371c-4.209 0.545-8.233-1.124-11.366-4.122-3.133-3.032-5.038-7.324-5.253-11.923l-30.72-613.161c-0.461-9.027 5.53-16.896 13.64-17.884l134.216-16.555 5.99-37.573c0.737-4.667 3.164-8.755 6.758-11.343 2.519-1.839 5.407-2.759 8.356-2.759 1.26 0 2.488 0.17 3.748 0.545l122.88 34.065c0.553 0.136 0.983 0.545 1.505 0.783l426.67 87.818c11.551 2.385 19.169 14.682 17.050 27.524l-34.56 206.329c0.061 1.294 0.246 2.623 0 3.986z" />
<glyph unicode="&#xe912;" glyph-name="photos" horiz-adv-x="1390" d="M591.906 516.877c205.535 109.020 410.84-80.251 292.573-269.716-11.229-17.993-27.662-33.141-47.181-43.492-205.535-109.117-410.966 80.232-292.594 269.716 11.25 17.993 27.683 33.141 47.202 43.492zM890.419 582.27c-287.871 164.759-595.43-118.732-416.696-384.115 16.329-24.242 38.723-44.885 65.021-59.918 287.871-164.778 595.43 118.732 416.675 384.095-16.329 24.242-38.702 44.885-65 59.937zM554.17 877.775h325.188l72.744-133.455c11.334-20.837 36.057-34.863 61.327-34.825h256.033c23.57 0 40.654-15.42 40.654-38.133v-638.991c0-22.713-17.084-38.133-40.654-38.133h-1105.396c-23.591 0-40.654 15.42-40.654 38.133v638.991c0 22.713 17.063 38.133 40.654 38.133h256.012c25.312-0.039 50.014 13.988 61.348 34.825l72.744 133.455zM525.689 960c-24.346-0.213-47.181-15.632-56.416-32.039l-66.889-122.737h-274.733c-46.572 0-84.687-35.134-84.687-78.065v-733.83c0-42.931 38.114-78.065 84.687-78.065h1173.859c46.572 0 84.687 35.134 84.687 78.065v733.23c0 43.26-38.408 78.665-85.358 78.665h-274.061l-66.91 122.737c-10.41 19.173-33.14 32.077-56.395 32.039h-377.784z" />
<glyph unicode="&#xe913;" glyph-name="photos-filled" horiz-adv-x="1182" d="M443.077 372.148c0-84.461 65.465-151.704 147.692-151.704s147.692 67.243 147.692 151.704c0 84.461-65.465 151.704-147.692 151.704s-147.692-67.243-147.692-151.704zM590.769 106.667c-142.080 0-258.462 119.543-258.462 265.481s116.382 265.481 258.462 265.481c142.080 0 258.462-119.543 258.462-265.481s-116.382-265.481-258.462-265.481zM1037.889 808.296h-172.505l-58.837 120.301c-9.175 18.773-29.169 31.441-49.625 31.403h-332.308c-21.415-0.209-41.502-15.322-49.625-31.403l-58.837-120.301h-172.505c-78.683 0-143.649-67.186-143.649-148.158v-575.981c0-80.972 64.966-148.158 143.649-148.158h894.24c78.683 0 143.649 67.186 143.649 148.158v575.981c0 80.972-64.966 148.158-143.649 148.158z" />
<glyph unicode="&#xe914;" glyph-name="trash-circle" d="M512-36.267c-267.453 0-484.267 216.814-484.267 484.267s216.814 484.267 484.267 484.267c267.453 0 484.267-216.814 484.267-484.267s-216.814-484.267-484.267-484.267zM512-6.4c250.958 0 454.4 203.442 454.4 454.4s-203.442 454.4-454.4 454.4c-250.958 0-454.4-203.442-454.4-454.4s203.442-454.4 454.4-454.4zM640 256c0-11.776-9.557-21.333-21.333-21.333h-213.333c-11.776 0-21.333 9.557-21.333 21.333v277.333h256v-277.333zM448 597.333c0 11.755 9.557 21.333 21.333 21.333h85.333c11.776 0 21.333-9.579 21.333-21.333v-21.333h-128v21.333zM704 576h-85.333v21.333c0 35.285-28.715 64-64 64h-85.333c-35.285 0-64-28.715-64-64v-21.333h-85.333c-11.797 0-21.333-9.557-21.333-21.333 0-11.797 9.536-21.333 21.333-21.333h21.333v-277.333c0-35.285 28.715-64 64-64h213.333c35.285 0 64 28.715 64 64v277.333h21.333c11.797 0 21.333 9.536 21.333 21.333 0 11.776-9.536 21.333-21.333 21.333zM469.333 469.333c-11.797 0-21.333-9.557-21.333-21.333v-128c0-11.797 9.536-21.333 21.333-21.333 11.776 0 21.333 9.536 21.333 21.333v128c0 11.776-9.557 21.333-21.333 21.333zM576 469.333c-11.797 0-21.333-9.557-21.333-21.333v-128c0-11.797 9.536-21.333 21.333-21.333s21.333 9.536 21.333 21.333v128c0 11.776-9.536 21.333-21.333 21.333z" />
<glyph unicode="&#xe915;" glyph-name="video-filled" horiz-adv-x="1536" d="M976.574 391.696l-286.181-182.335c-11.318-8.213-25.869-11.481-38.804-11.481-11.318 0-24.253 3.269-35.571 9.855-24.253 13.14-38.804 37.778-38.804 65.7v362.994c0 27.923 14.552 52.56 38.804 65.7 22.636 13.14 51.739 13.14 74.375-1.643l286.181-182.318c21.019-14.783 33.954-37.778 33.954-62.415 0-26.28-12.935-50.918-33.954-64.058zM1269.223 960.003h-1004.059c-147.133 0-265.162-121.545-265.162-269.371v-471.399c0-149.484 119.646-269.371 265.162-269.371h1004.059c147.133 0 265.162 121.545 265.162 269.371v471.399c0 147.826-119.646 269.371-265.162 269.371z" />
<glyph unicode="&#xe916;" glyph-name="video" horiz-adv-x="1434" d="M1367.205 210.695c0-108.902-81.489-196.689-182.61-196.689h-937.107c-101.107 0-182.595 87.788-182.595 196.689v466.489c0 108.902 81.489 196.673 182.595 196.673h937.107c101.122 0 182.61-87.771 182.61-196.673v-466.489zM1184.594 943.749h-937.107c-137.324 0-247.485-120.279-247.485-266.565v-466.489c0-147.927 111.67-266.565 247.485-266.565h937.107c137.339 0 247.5 120.279 247.5 266.565v466.489c0 146.286-111.685 266.565-247.5 266.565zM876.763 439.87l-267.102-180.419c0 0-1.509-1.625-4.527 0-1.509 1.625-1.509 3.251-1.509 3.251v359.213c0 0 0 3.251 1.509 3.251h3.018l267.087-180.419c0 0 1.524-1.625 1.524-3.251 1.509-1.625 0-1.625 0-1.625zM911.471 506.511l-267.102 180.419c-21.127 14.629-48.29 14.629-69.416 1.625-22.636-13.003-36.217-37.384-36.217-65.016v-359.213c0-27.632 13.581-52.013 36.217-65.016 10.563-6.502 22.636-9.736 33.199-9.736 12.072 0 25.654 3.235 36.217 11.362l267.102 180.419c19.618 13.003 31.675 37.384 31.675 63.39 0 24.381-12.057 47.137-31.675 61.765z" />
<glyph unicode="&#xe917;" glyph-name="down" horiz-adv-x="910" d="M413.882 66.975l-343.218 318.508c-16.169 14.978-42.409 14.978-58.578 0-16.114-15.004-16.114-39.327 0-54.331 0 0 314.991-292.239 413.771-383.899 16.141-15.004 42.354-15.004 58.523 0 94.365 87.564 399.092 370.329 413.716 383.899 16.169 15.004 16.169 39.327 0 54.331-16.169 14.978-42.354 14.978-58.523 0l-342.915-318.201v854.313c0 10.19-4.36 19.945-12.113 27.165-7.781 7.195-18.294 11.24-29.275 11.24s-21.494-4.045-29.303-11.24c-7.726-7.22-12.085-16.975-12.085-27.165v-854.62z" />
<glyph unicode="&#xe918;" glyph-name="counter" horiz-adv-x="878" d="M438.857 772.724c217.065 0 392.624-176.733 392.624-395.276 0-218.531-175.559-394.903-392.624-394.903-217.192 0-392.624 176.372-392.624 394.903 0 218.543 175.432 395.276 392.624 395.276zM436.696 960c-23.66 0-45.262-3.561-62.854-10.182-8.796-3.305-16.794-7.191-23.833-13.452-7.051-6.272-13.731-16.291-13.731-28.73 0-12.451 6.681-22.47 13.731-28.73 7.039-6.26 15.037-10.508 23.833-13.824 8.981-3.375 18.84-5.958 29.612-7.633l-19.857-41.449c-216.106-27.45-383.597-213.713-383.597-438.551 0-243.677 196.699-441.449 438.857-441.449 242.042 0 438.857 197.772 438.857 441.449 0 224.861-167.538 411.148-383.597 438.551l-19.857 41.449c10.738 1.676 20.655 4.271 29.612 7.633 8.807 3.316 16.794 7.564 23.833 13.824 7.051 6.26 14.090 16.279 14.090 28.73 0 12.439-7.039 22.458-14.090 28.73-7.039 6.26-15.026 10.147-23.833 13.452-17.592 6.621-38.824 10.182-62.484 10.182h-4.693z" />
<glyph unicode="&#xe919;" glyph-name="hashtag" horiz-adv-x="1103" d="M267.815 337.723l70.892 220.554h-149.662c-39.385 0-55.138 15.754-55.138 55.138 0 23.631 31.508 39.385 86.646 39.385h149.662c7.877 39.385 23.631 102.4 47.262 173.292 7.877 31.508 31.508 47.262 63.015 47.262 15.754 0 23.631-7.877 31.508-15.754s15.754-23.631 15.754-31.508c0-15.754-7.877-39.385-15.754-70.892-15.754-55.138-23.631-94.523-31.508-102.4h275.692c15.754 47.262 31.508 102.4 55.138 173.292 7.877 31.508 31.508 47.262 55.138 47.262 31.508 0 47.262-15.754 47.262-39.385s-15.754-86.646-47.262-181.169h110.277c39.385 0 55.138-15.754 55.138-39.385 0-39.385-23.631-55.138-63.015-55.138-7.877 0-15.754 0-23.631 0-15.754 0-23.631 0-23.631 0h-78.769l-63.015-220.554h118.154c23.631 0 47.262 0 55.138-7.877 15.754-7.877 31.508-23.631 31.508-39.385 0-31.508-15.754-47.262-47.262-47.262h-181.169l-47.262-173.292c-7.877-31.508-31.508-55.138-63.015-55.138s-47.262 15.754-47.262 39.385c0 23.631 7.877 55.138 15.754 94.523 15.754 55.138 23.631 86.646 31.508 94.523h-283.569c-7.877-39.385-31.508-102.4-63.015-189.046-7.877-23.631-31.508-39.385-55.138-39.385-31.508 0-47.262 15.754-47.262 39.385 0 15.754 7.877 31.508 15.754 63.015 15.754 39.385 23.631 78.769 39.385 118.154h-110.277c-31.508 0-47.262 15.754-47.262 55.138 0 15.754 7.877 23.631 15.754 31.508s23.631 7.877 39.385 7.877h118.154zM370.215 337.723h283.569l63.015 220.554h-275.692l-70.892-220.554z" />
<glyph unicode="&#xe91a;" glyph-name="list-activated" d="M204.8 960h-153.6c-25.6 0-51.2-25.6-51.2-51.2v-153.6c0-25.6 25.6-51.2 51.2-51.2h153.6c25.6 0 51.2 25.6 51.2 51.2v153.6c0 25.6-25.6 51.2-51.2 51.2zM204.8 192h-153.6c-25.6 0-51.2-25.6-51.2-51.2v-153.6c0-25.6 25.6-51.2 51.2-51.2h153.6c25.6 0 51.2 25.6 51.2 51.2v153.6c0 25.6-25.6 51.2-51.2 51.2zM204.8 576h-153.6c-25.6 0-51.2-25.6-51.2-51.2v-153.6c0-25.6 25.6-51.2 51.2-51.2h153.6c25.6 0 51.2 25.6 51.2 51.2v153.6c0 25.6-25.6 51.2-51.2 51.2zM960 12.8h-576c-25.6 0-51.2 19.2-51.2 51.2s19.2 51.2 51.2 51.2h576c25.6 0 51.2-19.2 51.2-51.2s-25.6-51.2-51.2-51.2zM960 396.8h-576c-25.6 0-51.2 25.6-51.2 51.2s25.6 51.2 51.2 51.2h576c25.6 0 51.2-19.2 51.2-51.2s-25.6-51.2-51.2-51.2zM960 780.8h-576c-25.6 0-51.2 25.6-51.2 51.2s25.6 51.2 51.2 51.2h576c25.6 0 51.2-19.2 51.2-51.2s-25.6-51.2-51.2-51.2z" />
<glyph unicode="&#xe91b;" glyph-name="up" horiz-adv-x="910" d="M496.341 829.025l343.218-318.508c16.169-14.978 42.409-14.978 58.578 0 16.114 15.004 16.114 39.327 0 54.331 0 0-314.991 292.239-413.771 383.899-16.141 15.004-42.354 15.004-58.523 0-94.365-87.564-399.092-370.329-413.716-383.899-16.169-15.004-16.169-39.327 0-54.331 16.169-14.978 42.354-14.978 58.523 0l342.915 318.201v-854.313c0-10.19 4.36-19.945 12.113-27.165 7.781-7.195 18.294-11.24 29.275-11.24s21.494 4.045 29.303 11.24c7.726 7.22 12.085 16.975 12.085 27.165v854.62z" />
<glyph unicode="&#xe91c;" glyph-name="search" d="M408.692 216.977c89.474 0 173.586 34.908 236.769 98.318 130.065 130.545 129.718 342.575-0.819 472.673-63.059 62.889-146.848 97.549-235.949 97.549-89.474 0-173.561-34.883-236.744-98.244-63.009-63.212-97.642-147.229-97.468-236.535s35.080-173.199 98.362-236.212c63.009-62.889 146.773-97.549 235.85-97.549zM408.692 960c108.938 0 211.421-42.356 288.532-119.273 150.87-150.382 159.311-390.17 25.472-550.806l290.394-290.362c14.548-14.549 14.548-38.111 0-52.66-7.274-7.275-16.807-10.899-26.341-10.899s-19.067 3.625-26.341 10.899l-290.27 290.312c-73.287-61.275-164.772-94.693-261.446-94.693-108.963 0-211.396 42.381-288.432 119.298-77.309 77.041-120.060 179.58-120.259 288.822s42.13 211.906 119.191 289.22c77.26 77.463 180.090 120.142 289.5 120.142z" />
<glyph unicode="&#xe91d;" glyph-name="facebook" horiz-adv-x="585" d="M440.136 793.688h111.759v166.312l-167.484-0.008c0 0-105.293 2.471-172.428-80.127 0 0-45.719-40.813-46.414-160.313h-0.034v-124.728h-165.535v-176.586h165.535v-456.19h190.925v456.19h164.24l22.89 176.586h-187.131v124.728h-0.048c0.461 13.933 7.010 75.387 83.725 74.136z" />
<glyph unicode="&#xe91e;" glyph-name="twitter" horiz-adv-x="1280" d="M402.563-64c483.097 0 747.244 394.001 747.244 735.564 0 11.168-0.178 22.327-0.784 33.382 51.352 36.457 95.882 82.118 130.977 133.867-47.027-20.537-97.71-34.421-150.755-40.694 54.225 32.035 95.767 82.673 115.493 142.989-50.683-29.546-106.988-51.173-166.782-62.804-48.030 50.309-116.088 81.696-191.711 81.696-145.040 0-262.549-115.788-262.549-258.417 0-20.29 2.309-39.943 6.739-59.041-218.239 10.942-411.904 113.752-541.355 270.13-22.495-38.154-35.555-82.519-35.555-129.846 0-89.677 46.306-168.822 116.914-215.224-43.067 1.337-83.647 12.958-118.982 32.374-0.063-1.162-0.063-2.19-0.063-3.301 0-125.259 90.574-229.765 210.612-253.419-21.91-5.882-45.188-9.132-69.114-9.132-16.947 0-33.381 1.728-49.388 4.772 33.496-102.83 130.444-177.543 245.299-179.641-89.864-69.376-203.12-110.666-326.188-110.666-21.147 0-42.001 1.214-62.615 3.62 116.203-73.407 254.222-116.209 402.563-116.209z" />
<glyph unicode="&#xe91f;" glyph-name="instagram" d="M538.947 571.958c0 0-5.389 0 0 0-32.337 0-64.674-10.779-86.232-32.337-26.947-21.558-37.726-59.284-37.726-91.621s10.779-59.284 32.337-80.842c21.558-26.947 59.284-43.116 97.011-43.116s70.063 16.168 97.011 43.116c16.168 21.558 32.337 48.505 32.337 80.842-5.389 75.453-53.895 123.958-134.737 123.958zM851.537 960h-679.074c-97.011 0-172.463-75.453-172.463-172.463v-679.074c0-97.011 75.453-172.463 172.463-172.463h679.074c97.011 0 172.463 75.453 172.463 172.463v679.074c0 97.011-75.453 172.463-172.463 172.463zM894.653 275.537c0-129.347-102.4-231.747-220.968-231.747h-317.979c-123.958 0-220.968 102.4-220.968 231.747v344.926c0 129.347 102.4 231.747 220.968 231.747h312.589c123.958 0 220.968-102.4 220.968-231.747v-344.926zM668.295 792.926h-312.589c-91.621 0-161.684-75.453-161.684-172.463v-350.316c0-97.011 75.453-172.463 161.684-172.463h312.589c91.621 0 161.684 75.453 161.684 172.463v350.316c0 97.011-70.063 172.463-161.684 172.463zM700.632 744.421c32.337 0 53.895-21.558 53.895-53.895s-21.558-53.895-53.895-53.895-53.895 21.558-53.895 53.895c0 32.337 21.558 53.895 53.895 53.895zM538.947 248.589c-107.789 0-199.411 86.232-199.411 199.411 0 43.116 16.168 80.842 37.726 113.179 5.389 10.779 16.168 21.558 26.947 32.337 37.726 37.726 86.232 53.895 140.126 53.895 118.568-5.389 199.411-80.842 199.411-199.411 0-26.947-5.389-53.895-16.168-80.842-37.726-70.063-107.789-118.568-188.632-118.568z" />
<glyph unicode="&#xe920;" glyph-name="youtube" horiz-adv-x="1317" d="M1316.571 278.493c0-182.956-56.75-331.24-222.597-331.24h-853.603c-165.927 0-240.371 148.284-240.371 331.24v350.3c0 182.956 67.384 331.207 233.282 331.207h867.693c165.937 0 215.596-148.251 215.596-331.207v-350.3zM526.629 683.796v-460.34l438.857 230.121-438.857 230.219z" />
<glyph unicode="&#xe921;" glyph-name="news" horiz-adv-x="1280" d="M477.957 192h644.085c16.596 0 29.957-14.272 29.957-32s-13.361-32-29.957-32h-644.085c-16.596 0-29.957 14.272-29.957 32s13.361 32 29.957 32zM477.957 448h644.085c16.596 0 29.957-14.272 29.957-32s-13.361-32-29.957-32h-644.085c-16.596 0-29.957 14.272-29.957 32s13.361 32 29.957 32zM864 576h256c17.728 0 32-14.272 32-32s-14.272-32-32-32h-256c-17.728 0-32 14.272-32 32s14.272 32 32 32zM448 576v192h192v-192h-192zM0 768v-712c0-66.48 42.816-120 96-120s96 53.52 96 120v712h-192zM864 768h256c17.728 0 32-14.272 32-32s-14.272-32-32-32h-256c-17.728 0-32 14.272-32 32s14.272 32 32 32zM298.926 960v-847.5c0-42.885-16.391-82.17-42.926-112.5h903.252c71.075 0 120.748 49.365 120.748 120v840h-981.074z" />
<glyph unicode="&#xe922;" glyph-name="trends" horiz-adv-x="904" d="M656.059 587.733l-92.68-78.933 29.496-119.467c5.265-22.4-18.966-40.533-37.921-27.733l-103.19 64-103.2-65.067c-18.955-11.733-43.176 5.333-37.91 27.733l29.486 119.467-92.67 78.933c-17.902 14.933-8.435 43.733 14.743 45.867l121.102 8.533 45.271 114.133c8.435 21.333 38.974 21.333 47.388 0l45.282-114.133 121.102-8.533c22.125-1.067 31.592-29.867 13.7-44.8zM879.298 960h-855.088c-13.679 0-24.21-10.667-24.21-24.533v-764.8c0-13.867 10.531-24.533 24.21-24.533h274.86l152.694-210.133 152.694 210.133h274.839c13.7 0 24.231 10.667 24.231 24.533v764.8c0 12.8-10.531 24.533-24.231 24.533z" />
<glyph unicode="&#xe923;" glyph-name="webpage" horiz-adv-x="1216" d="M63.52 960c-34.88 0-63.52-29.952-63.52-66.227v-572.083h1185.28v572.083c0 36.275-28.8 66.227-63.68 66.227h-1058.080zM592.64 203.040c11.68 0 21.12-9.44 21.12-21.12s-9.44-21.28-21.12-21.28c-11.68 0-21.12 9.6-21.12 21.28s9.44 21.12 21.12 21.12zM0 256v-84.64c0-34.88 28.64-63.52 63.52-63.52h1058.24c34.72 0 63.52 28.64 63.52 63.52v84.64h-1185.28zM407.922 64l-15.644-69.12-72.277-51.68h477.468l-72.434 51.68-15.644 69.12z" />
<glyph unicode="&#xe924;" glyph-name="distribution-list" horiz-adv-x="819" d="M409.6 756.775c45.686 0 83.495 37.809 83.495 83.495s-37.809 85.071-83.495 85.071-83.495-37.809-83.495-83.495 37.809-85.071 83.495-85.071zM409.6 893.834c28.357 0 51.988-23.631 51.988-51.988s-23.631-51.988-51.988-51.988-51.988 23.631-51.988 51.988 23.631 51.988 51.988 51.988zM723.102 336.148c-15.754 0-31.508-4.726-44.111-12.603l-162.265 176.443h50.412c9.452 0 15.754 6.302 15.754 15.754v88.222c0 64.591-51.988 116.578-116.578 116.578h-111.852c-64.591 0-116.578-51.988-116.578-116.578v-88.222c0-9.452 6.302-15.754 15.754-15.754h50.412l-163.84-176.443c-12.603 7.877-26.782 12.603-44.111 12.603-44.111 0-80.345-36.234-80.345-80.345s36.234-80.345 80.345-80.345 80.345 36.234 80.345 80.345c0 17.329-4.726 33.083-14.178 45.686l184.32 198.498h47.262v-163.84c-36.234-7.877-64.591-39.385-64.591-78.769 0-44.111 36.234-80.345 80.345-80.345s80.345 36.234 80.345 80.345c0 39.385-28.357 70.892-64.591 78.769v163.84h47.262l184.32-196.923c-9.452-12.603-14.178-28.357-14.178-45.686 0-44.111 36.234-80.345 80.345-80.345s80.345 36.234 80.345 80.345c0 44.111-36.234 78.769-80.345 78.769zM96.098 206.966c-26.782 0-48.837 22.055-48.837 48.837s22.055 48.837 48.837 48.837 48.837-22.055 48.837-48.837-22.055-48.837-48.837-48.837zM458.437 255.803c0-26.782-22.055-48.837-48.837-48.837s-48.837 22.055-48.837 48.837c0 26.782 22.055 48.837 48.837 48.837 0 0 0 0 0 0s0 0 0 0c26.782 0 48.837-22.055 48.837-48.837zM269.391 603.963c0 47.262 37.809 85.071 85.071 85.071h111.852c47.262 0 85.071-37.809 85.071-85.071v-72.468h-281.994v72.468zM723.102 206.966c-26.782 0-48.837 22.055-48.837 48.837s22.055 48.837 48.837 48.837 48.837-22.055 48.837-48.837-22.055-48.837-48.837-48.837z" />
<glyph unicode="&#xe925;" glyph-name="edit-number" horiz-adv-x="1109" d="M204.8 119.467c4.267 0 4.267 0 4.267 0s4.267 0 4.267 0c0 0 4.267 0 4.267 0l260.267 55.467c4.267 0 12.8 4.267 17.067 8.533l469.333 452.267c25.6 25.6 42.667 64 42.667 102.4s-17.067 72.533-42.667 102.4l-46.933 42.667c-55.467 55.467-149.333 55.467-209.067 0l-460.8-452.267c-4.267-4.267-8.533-8.533-8.533-17.067l-55.467-256c0-8.533 0-17.067 4.267-25.6 4.267-4.267 8.533-12.8 17.067-12.8zM913.067 686.933l-17.067-17.067-157.867 153.6 17.067 17.067c29.867 29.867 81.067 29.867 110.933 0l42.667-42.667c21.333-17.067 29.867-34.133 29.867-55.467s-8.533-42.667-25.6-55.467v0zM320 409.6l375.467 366.933 157.867-153.6-375.467-366.933-157.867 153.6zM256 196.267l34.133 149.333 119.467-115.2-153.6-34.133zM0 34.133h1092.267v-55.467h-1092.267v55.467z" />
<glyph unicode="&#xe926;" glyph-name="square-view-act" horiz-adv-x="960" d="M204.371 576h-152.743c-28.473 0-51.629-23.155-51.629-51.629v-152.743c0-28.473 23.155-51.629 51.629-51.629h152.743c28.473 0 51.629 23.155 51.629 51.629v152.743c0 28.473-23.155 51.629-51.629 51.629zM204.371 192h-152.743c-28.473 0-51.629-23.155-51.629-51.629v-152.743c0-28.473 23.155-51.629 51.629-51.629h152.743c28.473 0 51.629 23.155 51.629 51.629v152.743c0 28.473-23.155 51.629-51.629 51.629zM204.371 960h-152.743c-28.473 0-51.629-23.155-51.629-51.629v-152.743c0-28.473 23.155-51.629 51.629-51.629h152.743c28.473 0 51.629 23.155 51.629 51.629v152.743c0 28.473-23.155 51.629-51.629 51.629zM556.371 576h-152.743c-28.473 0-51.629-23.155-51.629-51.629v-152.743c0-28.473 23.155-51.629 51.629-51.629h152.743c28.473 0 51.629 23.155 51.629 51.629v152.743c0 28.473-23.155 51.629-51.629 51.629zM556.371 192h-152.743c-28.473 0-51.629-23.155-51.629-51.629v-152.743c0-28.473 23.155-51.629 51.629-51.629h152.743c28.473 0 51.629 23.155 51.629 51.629v152.743c0 28.473-23.155 51.629-51.629 51.629zM556.371 960h-152.743c-28.473 0-51.629-23.155-51.629-51.629v-152.743c0-28.473 23.155-51.629 51.629-51.629h152.743c28.473 0 51.629 23.155 51.629 51.629v152.743c0 28.473-23.155 51.629-51.629 51.629zM908.371 576h-152.743c-28.473 0-51.629-23.155-51.629-51.629v-152.743c0-28.473 23.155-51.629 51.629-51.629h152.743c28.473 0 51.629 23.155 51.629 51.629v152.743c0 28.473-23.155 51.629-51.629 51.629zM908.371 192h-152.743c-28.473 0-51.629-23.155-51.629-51.629v-152.743c0-28.473 23.155-51.629 51.629-51.629h152.743c28.473 0 51.629 23.155 51.629 51.629v152.743c0 28.473-23.155 51.629-51.629 51.629zM908.371 960h-152.743c-28.473 0-51.629-23.155-51.629-51.629v-152.743c0-28.473 23.155-51.629 51.629-51.629h152.743c28.473 0 51.629 23.155 51.629 51.629v152.743c0 28.473-23.155 51.629-51.629 51.629z" />
<glyph unicode="&#xe927;" glyph-name="dashboards" d="M542.118 598.588v361.412h481.882v-361.412h-481.882zM602.353 658.763h361.412v241.001h-361.412v-241.001zM0 357.647v602.353h481.882v-602.353h-481.882zM60.235 417.882h361.412v481.882h-361.412v-481.882zM542.118-64v602.353h481.882v-602.353h-481.882zM602.353-3.765h361.412v481.882h-361.412v-481.882zM0-64v361.412h481.882v-361.412h-481.882zM60.235-3.825h361.412v241.001h-361.412v-241.001z" />
<glyph unicode="&#xe928;" glyph-name="edit" d="M919.861 652.665l-30.578-31.289-217.33 217.316 31.161 31.147c44.43 44.402 116.423 44.402 160.839 0l55.751-55.751c44.629-44.245 44.914-116.295 0.668-160.896-0.185-0.185-0.341-0.356-0.512-0.526zM117.301 249.892l183.182-183.182-234.254-51.058 51.072 234.24zM140.767 306.78l490.937 491.093 216.747-216.747-491.079-490.951-216.604 216.604zM960.394 853.767l-56.050 56.036c-66.532 66.759-174.578 66.958-241.351 0.412-0.128-0.128-0.284-0.27-0.427-0.412l-583.097-583.111c-3.883-3.897-6.556-8.846-7.68-14.222l-71.111-328.533c-3.385-15.346 6.3-30.521 21.646-33.892 2.233-0.498 4.508-0.725 6.798-0.668 2.034-0.228 4.082-0.228 6.116 0l328.519 71.111c5.39 1.138 10.325 3.797 14.222 7.68l583.111 583.111c66.773 66.532 66.958 174.592 0.441 241.365-0.384 0.37-0.768 0.754-1.138 1.124z" />
<glyph unicode="&#xe929;" glyph-name="grid-deactivated" horiz-adv-x="960" d="M51.629 371.629v152.743h152.743l0.039-152.743h-152.782zM204.371 576h-152.743c-28.473 0-51.629-23.155-51.629-51.629v-152.743c0-28.473 23.155-51.629 51.629-51.629h152.743c28.473 0 51.629 23.155 51.629 51.629v152.743c0 28.473-23.155 51.629-51.629 51.629zM51.629-12.371v152.743h152.743l0.039-152.743h-152.782zM204.371 192h-152.743c-28.473 0-51.629-23.155-51.629-51.629v-152.743c0-28.473 23.155-51.629 51.629-51.629h152.743c28.473 0 51.629 23.155 51.629 51.629v152.743c0 28.473-23.155 51.629-51.629 51.629zM51.629 755.629v152.743h152.743l0.039-152.743h-152.782zM204.371 960h-152.743c-28.473 0-51.629-23.155-51.629-51.629v-152.743c0-28.473 23.155-51.629 51.629-51.629h152.743c28.473 0 51.629 23.155 51.629 51.629v152.743c0 28.473-23.155 51.629-51.629 51.629zM403.629 371.629v152.743h152.743l0.039-152.743h-152.782zM556.371 576h-152.743c-28.473 0-51.629-23.155-51.629-51.629v-152.743c0-28.473 23.155-51.629 51.629-51.629h152.743c28.473 0 51.629 23.155 51.629 51.629v152.743c0 28.473-23.155 51.629-51.629 51.629zM403.629-12.371v152.743h152.743l0.039-152.743h-152.782zM556.371 192h-152.743c-28.473 0-51.629-23.155-51.629-51.629v-152.743c0-28.473 23.155-51.629 51.629-51.629h152.743c28.473 0 51.629 23.155 51.629 51.629v152.743c0 28.473-23.155 51.629-51.629 51.629zM403.629 755.629v152.743h152.743l0.039-152.743h-152.782zM556.371 960h-152.743c-28.473 0-51.629-23.155-51.629-51.629v-152.743c0-28.473 23.155-51.629 51.629-51.629h152.743c28.473 0 51.629 23.155 51.629 51.629v152.743c0 28.473-23.155 51.629-51.629 51.629zM755.629 371.629v152.743h152.743l0.039-152.743h-152.782zM908.371 576h-152.743c-28.473 0-51.629-23.155-51.629-51.629v-152.743c0-28.473 23.155-51.629 51.629-51.629h152.743c28.473 0 51.629 23.155 51.629 51.629v152.743c0 28.473-23.155 51.629-51.629 51.629zM755.629-12.371v152.743h152.743l0.039-152.743h-152.782zM908.371 192h-152.743c-28.473 0-51.629-23.155-51.629-51.629v-152.743c0-28.473 23.155-51.629 51.629-51.629h152.743c28.473 0 51.629 23.155 51.629 51.629v152.743c0 28.473-23.155 51.629-51.629 51.629zM755.629 755.629v152.743h152.743l0.039-152.743h-152.782zM908.371 960h-152.743c-28.473 0-51.629-23.155-51.629-51.629v-152.743c0-28.473 23.155-51.629 51.629-51.629h152.743c28.473 0 51.629 23.155 51.629 51.629v152.743c0 28.473-23.155 51.629-51.629 51.629z" />
<glyph unicode="&#xe92a;" glyph-name="recents" horiz-adv-x="910" d="M66.062 267.667c-7.147 17.749-27.172 26.317-44.702 19.081-16.384-6.793-25.014-25.088-19.89-42.257 86.033-242.176 349.66-367.957 588.88-280.883s363.448 354.031 277.416 596.241c-85.999 242.21-349.626 367.991-588.88 280.883-61.322-22.289-117.25-57.549-164.143-103.424v170.223c0 19.183-15.339 34.748-34.285 34.748s-34.285-15.565-34.285-34.748l0.708-266.172c0-19.183 15.339-34.714 34.251-34.714l262.919-0.717c18.946 0 34.285 15.531 34.285 34.748 0 19.149-15.339 34.679-34.285 34.679h-191.686c2.056 2.219 3.877 4.403 5.933 6.519 152.85 154.556 400.464 154.453 553.179-0.273 152.681-154.726 152.547-405.504-0.27-560.060-152.816-154.624-400.464-154.487-553.145 0.273-40.589 41.097-71.705 90.726-91.224 145.374l-0.775 0.478zM538.39 277.333c16.854 0 30.499 16.394 30.499 36.6v268.17c0 20.205-13.645 36.564-30.499 36.564s-30.529-16.358-30.529-36.564v-231.606h-136.030c-16.854 0-30.499-16.394-30.499-36.564 0-20.205 13.645-36.6 30.499-36.6h166.558z" />
<glyph unicode="&#xe92b;" glyph-name="followers" horiz-adv-x="1408" d="M702.533 900.617c-76.267 0-138.844-59.383-138.844-132.793s62.089-132.793 138.844-132.793c76.756 0 138.844 59.383 138.844 132.793s-62.578 132.793-138.844 132.793zM702.533 576.584c-110.489 0-200.444 86.035-200.444 191.708s89.956 191.708 200.444 191.708c110.489 0 200.444-86.035 200.444-191.708s-89.956-191.708-200.444-191.708zM292.845 835.156c-56.222 0-102.178-43.953-102.178-97.724s45.956-97.724 102.178-97.724c56.222 0 102.178 43.953 102.178 97.724s-45.956 97.724-102.178 97.724zM292.845 580.325c-90.444 0-163.778 70.137-163.778 156.639s73.333 156.639 163.778 156.639c90.444 0 163.778-70.137 163.778-156.639s-73.333-156.639-163.778-156.639zM1112.221 835.156c-56.222 0-102.173-43.953-102.173-97.724s45.951-97.724 102.173-97.724c56.222 0 102.178 43.953 102.178 97.724s-45.956 97.724-102.178 97.724zM1112.221 580.325c-90.444 0-163.778 70.137-163.778 156.639s73.333 156.639 163.778 156.639c90.444 0 163.778-70.137 163.778-156.639s-73.333-156.639-163.778-156.639zM1338.089 101.523h-271.822l-1.467 153.366c0 73.41-43.022 149.158-117.333 203.397 42.044 27.12 100.222 42.082 164.267 42.082 135.422 0 229.778-90.711 229.778-172.069l1.467-225.841c-0.978-0.468-2.444-0.935-4.889-0.935zM990.489-1.812h-575.911c-7.333 0-12.711 1.87-15.156 3.273l1.956 253.428c0 106.141 120.756 219.763 300.667 219.763s300.667-113.622 300.667-220.23l1.956-252.961c-1.956-1.403-6.844-3.273-14.178-3.273zM340.267 255.357l-1.467-153.366h-271.822c-2.444 0-3.911 0-5.378 0.468l1.467 226.309c0 81.359 94.356 172.069 229.778 172.069 64.044 0 122.222-14.963 164.267-42.082-73.822-54.239-116.844-130.455-116.844-203.397zM1403.6 328.3c0 111.752-116.844 230.984-291.378 230.984-88.489 0-166.222-23.847-220.489-67.332-53.289 26.184-117.333 42.082-189.2 42.082s-135.911-15.898-189.2-42.082c-54.267 43.485-132 67.332-220.489 67.332-174.533 0-291.378-119.233-291.378-230.517l-1.467-232.855c0-12.157 4.889-24.314 14.667-33.666 12.711-12.157 31.778-19.171 52.311-19.171h271.822l-0.489-43.953c-0.489-13.56 5.378-27.12 16.133-37.406 14.178-14.027 36.667-21.976 60.622-21.976h575.911c23.956 0 45.956 7.949 60.622 21.976 10.756 10.287 16.622 23.379 16.133 36.939l-0.489 44.42h270.844c20.533 0 39.6 7.014 52.311 19.171 9.778 9.352 14.667 21.509 14.667 33.198l-1.467 232.855z" />
<glyph unicode="&#xe92c;" glyph-name="tick-ok" horiz-adv-x="1446" d="M1385.412 881.694c-42.165 42.165-114.447 42.165-156.612 0l-686.682-650.541-301.176 289.129c-42.165 42.165-114.447 42.165-156.612 0-24.094-18.071-36.141-48.188-36.141-78.306s12.047-54.212 36.141-78.306l379.482-361.412c18.071-18.071 48.188-30.118 78.306-30.118s54.212 12.047 78.306 30.118l764.988 728.847c24.094 18.071 36.141 48.188 36.141 78.306s-12.047 54.212-36.141 72.282z" />
<glyph unicode="&#xe92d;" glyph-name="google-plus" horiz-adv-x="1479" d="M467.365 546.377v-164.801h265.064c-10.681-70.73-80.122-207.373-265.064-207.373-159.57 0-289.766 135.961-289.766 303.508s130.196 303.508 289.766 303.508c90.804 0 151.559-39.826 186.279-74.158l126.851 125.657c-81.455 78.281-186.943 125.663-313.13 125.663-258.385 0-467.365-214.93-467.365-480.671s208.98-480.671 467.365-480.671c269.735 0 448.667 195.017 448.667 469.685 0 31.586-3.334 55.622-7.342 79.651h-441.325zM1424.595 595.107h-133.53v137.337h-133.535v-137.337h-133.53v-137.331h133.53v-137.337h133.535v137.337h133.53z" />
<glyph unicode="&#xe92e;" glyph-name="unlink" horiz-adv-x="1109" d="M1006.933 448c0-42.667-17.067-85.333-51.2-119.467-8.533-8.533-25.6-17.067-42.667-25.6l76.8-76.8c8.533 8.533 25.6 17.067 34.133 34.133 110.933 102.4 110.933 273.067 0 384-51.2 51.2-119.467 76.8-196.267 76.8h-221.867v-102.4h221.867c102.4 0 179.2-76.8 179.2-170.667zM887.467 183.467l-93.867 102.4-119.467 110.933-110.933 102.4-221.867 221.867-247.467 238.933-68.267-59.733 187.733-179.2c-51.2-17.067-93.867-42.667-136.533-76.8-102.4-110.933-102.4-281.6 0-384 51.2-51.2 119.467-76.8 196.267-76.8h221.867v102.4h-221.867c-42.667 0-85.333 17.067-119.467 51.2-34.133 25.6-51.2 68.267-51.2 110.933 0 93.867 76.8 162.133 170.667 162.133h42.667l119.467-110.933h-102.4v-102.4h213.333l119.467-110.933h-59.733v-102.4h162.133l247.467-238.933 68.267 59.733-196.267 179.2z" />
<glyph unicode="&#xe92f;" glyph-name="verify-account" horiz-adv-x="620" d="M524.088 157.031c0-18.335-15.099-33.183-33.732-33.183h-363.981c-18.656 0-33.768 14.849-33.768 33.183v682.343c0 18.347 15.124 33.207 33.768 33.207h363.969c18.632 0 33.732-14.86 33.732-33.207v-682.343h0.012zM308.354-5.613c-22.395 0-40.579 17.847-40.579 39.882s18.185 39.905 40.579 39.905c22.407 0 40.555-17.871 40.555-39.905s-18.136-39.882-40.555-39.882zM507.041 951.274h-397.386c-50.924 0-92.217-40.596-92.217-90.697v-816.111c0-50.078 41.293-90.697 92.217-90.697h397.386c50.924 0 92.229 40.619 92.229 90.697v816.111c0 50.102-41.305 90.697-92.229 90.697zM342.912 570.209h-69.108v75.361c0 13.29 10.974 24.069 24.476 24.069h20.12c13.478 0 24.5-10.779 24.5-24.069v-75.361h0.012zM331.164 378.463h-45.649l8.493 59.977c-9.667 5.068-16.297 15.075-16.297 26.616 0 16.633 13.732 30.137 30.658 30.137 16.938 0 30.658-13.504 30.658-30.137 0-11.541-6.618-21.547-16.333-26.616l8.469-59.977zM410.109 570.209h-16.781v75.361c0 40.619-33.598 73.66-74.916 73.66h-20.12c-41.317 0-74.904-33.040-74.904-73.66v-75.361h-16.805c-13.539 0-24.512-10.791-24.512-24.141v-206.94c0-13.314 10.974-24.117 24.512-24.117h203.526c13.563 0 24.549 10.803 24.549 24.117v206.94c0 13.349-10.986 24.141-24.549 24.141z" />
<glyph unicode="&#xe930;" glyph-name="linkedin" horiz-adv-x="922" d="M321.761 585.908h180.791v-88.757h2.524c25.17 51.071 86.658 104.902 178.355 104.902 190.878 0 226.127-134.544 226.127-309.421v-356.295h-188.372v315.887c0 75.325-1.297 172.221-97.954 172.221-98.078 0-113.134-82.055-113.134-166.777v-321.331h-188.337v649.572zM109.32 908.8c60.261 0 109.233-52.451 109.233-117.020 0-64.625-48.973-117.076-109.233-117.076-60.419 0-109.322 52.451-109.322 117.076 0 64.569 48.902 117.020 109.322 117.020zM15.019-63.663h188.504v649.572h-188.504v-649.572z" />
<glyph unicode="&#xe931;" glyph-name="list-deactivated" d="M344.189 807.145h639.201c14.161 0 25.654 11.493 25.654 25.653s-11.493 25.653-25.654 25.653h-639.201c-14.161 0-25.653-11.493-25.653-25.653s11.493-25.653 25.653-25.653zM51.306 756.903v151.79h151.79l0.038-151.79h-151.829zM203.097 960h-151.79c-28.295 0-51.306-23.011-51.306-51.306v-151.79c0-28.295 23.011-51.306 51.306-51.306h151.79c28.295 0 51.306 23.011 51.306 51.306v151.79c0 28.295-23.011 51.306-51.306 51.306zM983.391 88.855h-639.201c-14.161 0-25.653-11.493-25.653-25.653s11.493-25.653 25.653-25.653h639.201c14.161 0 25.654 11.493 25.654 25.653s-11.493 25.653-25.654 25.653zM51.306-12.694v151.79h151.79l0.038-151.79h-151.829zM203.097 190.403h-151.79c-28.295 0-51.306-23.011-51.306-51.306v-151.79c0-28.295 23.011-51.306 51.306-51.306h151.79c28.295 0 51.306 23.011 51.306 51.306v151.79c0 28.295-23.011 51.306-51.306 51.306zM983.391 473.653h-639.201c-14.161 0-25.653-11.493-25.653-25.653s11.493-25.653 25.653-25.653h639.201c14.161 0 25.654 11.493 25.654 25.653s-11.493 25.653-25.654 25.653zM51.306 372.105v151.79h151.79l0.038-151.79h-151.829zM203.097 575.202h-151.79c-28.295 0-51.306-23.011-51.306-51.306v-151.79c0-28.295 23.011-51.306 51.306-51.306h151.79c28.295 0 51.306 23.011 51.306 51.306v151.79c0 28.295-23.011 51.306-51.306 51.306z" />
<glyph unicode="&#xe932;" glyph-name="response-time" horiz-adv-x="1707" d="M417.937 395.504h-147.107c-38.616 0-70.223 30.010-70.223 66.658 0 36.683 31.607 66.675 70.223 66.675h147.107c38.616 0 70.205-29.993 70.205-66.675 0-36.648-31.589-66.658-70.205-66.658zM417.937 587.966h-277.509c-38.635 0-70.223 29.993-70.223 66.658 0 36.683 31.589 66.675 70.223 66.675h277.509c38.616 0 70.205-29.993 70.205-66.675 0-36.665-31.589-66.658-70.205-66.658zM417.937 784.796h-347.732c-38.616 0-70.205 29.993-70.205 66.658s31.589 66.675 70.205 66.675h347.732c38.616 0 70.205-30.010 70.205-66.675s-31.589-66.658-70.205-66.658zM1000.771 504.434c3.919-7.127 11.149-12.123 19.501-13.45h3.128l102.29-4.524-23.199-137.84c-1.030-10.359 6.973-19.582 17.919-20.56 7.598-0.681 14.957 2.83 18.876 9.031l128.783 232.848c3.863 7.197 3.863 15.704 0 22.883-3.882 7.162-11.112 12.158-19.483 13.45h-3.128l-102.658 4.367 23.917 137.997c1.030 10.376-6.973 19.582-17.901 20.577-7.598 0.681-14.939-2.83-18.894-9.048l-129.151-232.848c-3.845-7.179-3.845-15.686 0-22.883zM562.542 548.296c0.092 227.468 194.407 411.808 433.998 411.703h275.963c239.573 0.21 433.98-184.060 434.164-411.546v-0.157c0-227.486-194.204-411.913-433.796-411.913h-72.486c-55.193-98.677-156.747-162.278-228.884-196.864-17.128-8.175-38.046-1.625-46.675 14.656-3.992 7.546-4.783 16.228-2.245 24.298 16.319 52.718 20.090 108.197 11.039 162.47-212.97 29.626-370.895 202.978-371.078 407.354z" />
<glyph unicode="&#xe933;" glyph-name="brand" d="M454.603 960l-444.232-10.359-10.371-444.261 569.397-569.38 454.603 454.596-569.397 569.404zM72.155 534.314l7.978 345.314 345.298 7.978 497.468-497.009-352.919-353.506-497.825 497.223zM340.117 619.844c-18.171-18.181-47.644-18.19-65.824-0.009-18.181 18.172-18.181 47.644-0.009 65.825s47.644 18.181 65.824 0.009c0.009 0 0.009-0.009 0.009-0.009 18.171-18.172 18.171-47.635 0-65.816zM379.588 725.224c-40.001 39.983-104.829 39.964-144.811-0.037-39.982-39.992-39.964-104.831 0.028-144.814 39.992-39.964 104.801-39.964 144.783 0 40.001 39.983 40.020 104.822 0.037 144.814l-0.037 0.037z" />
<glyph unicode="&#xe934;" glyph-name="bell" horiz-adv-x="819" d="M777.466 191.389c-4.754-26.535-26.007-57.58-70.34-57.58h-161.525l-0.041-0.284h-277.051l-0.081 0.284h-156.161c-42.504 0-64.163 29.379-69.811 54.492-5.567 24.747 1.463 57.296 37.913 74.525l11.622 5.526v231.743c0 175.869 118.452 315.086 281.724 331.055l18.326 1.788v73.103c0 13.288 10.484 14.71 14.954 14.71 4.551 0 15.035-1.422 15.035-14.71v-73.225l18.448-1.707c163.191-14.954 281.643-157.177 281.643-338.288l1.747-210.003-1.829-16.945 15.116-1.95c36.897-13.613 44.78-47.584 40.31-72.534zM407.035 8.531c-58.393 0-108.008 33.849-128.245 84.806h256.53c-20.236-50.957-69.852-84.806-128.285-84.806zM764.382 296.269l-1.625 196.756c0 195.577-125.116 350.845-300.091 376.364v36.653c-0.041 71.884-111.259 72.006-111.259 0v-36.734c-174.975-26.25-300.051-178.592-300.051-369.212v-206.793c-39.985-24.381-58.921-67.82-48.559-113.901 9.631-42.911 47.218-86.228 109.471-86.228h123.491c22.024-74.566 90.21-125.278 171.278-125.278 81.108 0 149.294 50.713 171.278 125.278h128.814c65.016 0 102.279 45.755 110.325 91.104 7.152 39.985-6.989 88.219-53.070 111.991z" />
<glyph unicode="&#xe935;" glyph-name="team" horiz-adv-x="1331" d="M1054.72 488.96c20.48 30.72 30.72 71.68 30.72 102.4 0 102.4-81.92 184.32-184.32 184.32-10.24 0-30.72 0-40.96 0-30.72 92.16-122.88 153.6-235.52 153.6s-194.56-61.44-235.52-153.6c-10.24 0-30.72 10.24-51.2 10.24-102.4 0-184.32-81.92-184.32-184.32 0-40.96 10.24-71.68 40.96-102.4-112.64-61.44-184.32-174.080-184.32-286.72 0-20.48 0-40.96 10.24-71.68 0-10.24 10.24-20.48 30.72-20.48h102.4c0-20.48 0-30.72 0-51.2 0-30.72 0-71.68 10.24-102.4h942.080c10.24 30.72 10.24 61.44 10.24 102.4 0 20.48 0 30.72 0 51.2h92.16c10.24 0 20.48 10.24 20.48 20.48 10.24 20.48 10.24 51.2 10.24 71.68 0 112.64-71.68 225.28-184.32 276.48zM1044.48 69.12c0-10.24 0-20.48 0-30.72h-819.2c0 10.24 0 20.48 0 30.72 0 20.48 0 30.72 0 51.2s10.24 40.96 10.24 51.2c30.72 122.88 122.88 215.040 256 266.24 0 0 0 0 0 0 10.24 10.24 20.48 20.48 30.72 30.72 0 10.24 10.24 10.24 10.24 20.48 0 20.48 0 30.72-10.24 51.2-10.24 0-10.24 10.24-10.24 10.24-20.48 10.24-30.72 30.72-40.96 40.96-10.24 20.48-20.48 51.2-20.48 81.92 0 0 0 10.24 0 10.24 0 20.48 0 40.96 10.24 61.44 20.48 61.44 81.92 112.64 163.84 112.64s143.36-51.2 174.080-112.64c10.24-20.48 10.24-40.96 10.24-61.44 0 0 0 0 0 0 0-40.96-10.24-71.68-40.96-102.4 0-10.24-10.24-20.48-20.48-30.72-10.24 0-10.24-10.24-20.48-20.48 0-10.24-10.24-30.72-10.24-40.96 0 0 0-10.24 10.24-10.24 10.24-20.48 20.48-30.72 40.96-40.96 0 0 0 0 0 0 122.88-40.96 225.28-143.36 256-266.24 0-20.48 10.24-30.72 10.24-51.2s10.24-30.72 10.24-51.2zM61.44 171.52c0 10.24 0 20.48 0 30.72 0 112.64 71.68 215.040 184.32 245.76 10.24 0 20.48 10.24 20.48 20.48s0 20.48-10.24 30.72c-30.72 30.72-40.96 61.44-40.96 102.4 0 71.68 61.44 122.88 133.12 122.88 10.24 0 20.48 0 30.72-10.24 0-10.24 0-20.48 0-30.72 0-61.44 30.72-122.88 71.68-163.84 10.24-10.24 10.24-10.24 20.48-20.48-10.24 0-30.72-10.24-40.96-20.48-143.36-51.2-245.76-163.84-276.48-307.2h-92.16zM1177.6 171.52h-81.92c-30.72 143.36-133.12 256-276.48 317.44-10.24 0-20.48 10.24-30.72 10.24 0 0 10.24 10.24 10.24 10.24 51.2 40.96 71.68 102.4 71.68 174.080 0 10.24 0 20.48 0 30.72 10.24 0 20.48 0 20.48 0 71.68 0 133.12-61.44 133.12-122.88 0-40.96-20.48-71.68-40.96-92.16 0 0 0-10.24 0-20.48s10.24-20.48 20.48-20.48c112.64-40.96 184.32-133.12 184.32-245.76-10.24-20.48-10.24-30.72-10.24-40.96z" />
<glyph unicode="&#xe936;" glyph-name="sadface" horiz-adv-x="1512" d="M454.113 941.829c21.955 0.383 42.614-3.628 61.977-12.033s36.304-19.584 50.823-33.538c14.519-13.954 26.066-30.692 34.643-50.214s13.046-39.662 13.408-60.42c0.381-21.851-3.098-42.676-10.439-62.476s-18.018-37.199-32.031-52.197c-14.013-14.998-30.274-27.031-48.784-36.097s-38.741-13.791-60.696-14.174c-21.955-0.383-42.614 3.628-61.977 12.033s-36.309 19.857-50.837 34.358c-14.528 14.5-26.080 31.511-34.657 51.033s-13.055 40.208-13.437 62.059c-0.362 20.758 3.401 41.042 11.291 60.851s18.572 36.935 32.046 51.378c13.474 14.443 29.74 26.202 48.798 35.277s39.016 13.795 59.873 14.16zM982.68 951.055c21.955 0.383 42.614-3.628 61.977-12.033s36.030-19.589 50-33.553c13.97-13.964 25.243-30.706 33.819-50.228s13.046-39.662 13.408-60.42c0.381-21.851-3.098-42.676-10.439-62.476s-18.018-37.199-32.031-52.197c-14.013-14.998-30.274-27.031-48.784-36.097s-38.741-13.791-60.696-14.174c-21.955-0.383-42.614 3.628-61.977 12.033s-36.309 19.857-50.837 34.358c-14.528 14.5-26.080 31.511-34.657 51.033s-13.055 40.208-13.437 62.059c-0.362 20.758 3.401 41.042 11.291 60.851s18.572 36.935 32.046 51.378c13.474 14.443 29.74 26.202 48.798 35.277s39.565 13.805 61.52 14.188zM757.464 380.061c135.024 2.357 266.841-16.107 395.454-55.391s247.385-96.772 356.319-172.465l-87.361-185.127c-96.706 67.163-201.088 118.072-313.15 152.727s-227.918 50.938-347.573 48.85c-119.655-2.089-234.873-22.405-345.657-60.95s-213.325-93.065-307.629-163.563l-93.768 181.966c106.226 79.448 222.92 141.046 350.084 184.795s258.256 66.802 393.28 69.158z" />
<glyph unicode="&#xe937;" glyph-name="box" d="M908.8 763.733l-341.333 170.667c0 0 0 0 0 0-34.133 17.067-76.8 17.067-115.2 0l-341.333-170.667c-42.667-21.333-68.267-64-68.267-110.933v-405.333c0-46.933 25.6-93.867 72.533-115.2l341.333-170.667c17.067-8.533 38.4-12.8 55.467-12.8 21.333 0 38.4 4.267 55.467 12.8l341.333 170.667c42.667 21.333 72.533 64 72.533 115.2v405.333c0 46.933-25.6 89.6-72.533 110.933zM494.933 861.867c4.267 4.267 12.8 4.267 17.067 4.267 8.533 0 12.8 0 17.067-4.267l315.733-157.867-332.8-166.4-332.8 166.4 315.733 157.867zM149.333 204.8c-12.8 8.533-21.333 25.6-21.333 38.4v392.533l341.333-170.667v-418.133l-320 157.867zM870.4 204.8l-315.733-157.867v418.133l341.333 170.667v-392.533c0-17.067-8.533-29.867-25.6-38.4z" />
<glyph unicode="&#xe938;" glyph-name="url" horiz-adv-x="798" d="M709.606 874.741c-81.707 65.721-198.938 54.175-266.435-26.644l-61.28-72.826c-12.434-14.21-10.657-36.413 4.441-48.846 7.105-6.217 15.986-8.881 24.867-7.993s17.762 5.329 23.091 12.434l61.28 73.714c43.518 51.511 119.896 58.616 171.407 15.098 0.888-0.888 1.776-1.776 2.664-1.776 48.846-45.294 53.287-120.784 10.657-171.407l-127.889-154.533c-7.993-8.881-16.874-16.874-27.532-23.091-49.735-30.196-113.679-22.203-153.644 20.427-6.217 7.105-15.098 10.657-23.979 10.657 0 0-0.888 0-0.888 0-8.881 0-16.874-3.552-23.091-8.881-14.21-13.322-14.21-34.637-1.776-48.846 44.406-47.070 108.35-69.273 172.295-57.728 9.769 1.776 19.539 4.441 28.42 7.105 32.86 11.546 63.056 31.084 85.259 58.616l127.001 151.868c32.86 39.965 49.735 92.364 44.406 144.763-4.441 49.735-30.196 95.917-69.273 127.889zM358.8 312.562l-55.063-65.721c-41.742-50.623-117.232-60.392-170.519-20.427-25.755 20.427-41.742 49.735-46.182 81.707-3.552 31.972 5.329 63.944 24.867 89.7 0.888 0.888 1.776 1.776 1.776 2.664l130.553 156.309c7.993 8.881 16.874 16.874 27.532 23.091 44.406 27.532 102.134 23.979 142.099-9.769 4.441-3.552 8.881-7.993 13.322-12.434 7.105-7.105 15.986-11.546 26.644-11.546 9.769 0 19.539 4.441 25.755 12.434l0.888 0.888c10.657 12.434 10.657 31.972-0.888 44.406-36.413 42.63-88.812 63.944-142.099 63.944-45.294 0-89.7-15.986-126.113-47.958-7.105-6.217-14.21-13.322-20.427-20.427l-128.777-154.533c-66.609-80.819-57.728-198.050 21.315-266.435 38.189-32.86 88.812-48.846 138.546-44.406 6.217 0.888 12.434 0.888 17.762 2.664 45.294 7.993 87.036 31.972 116.343 67.497l54.175 64.833c12.434 14.21 10.657 36.413-4.441 48.846-7.105 6.217-15.986 8.881-24.867 7.993-7.993-1.776-16.874-6.217-22.203-13.322v0z" />
<glyph unicode="&#xe939;" glyph-name="download" d="M896 362.667c-25.6 0-42.667-17.067-42.667-42.667v-170.667c0-25.6-17.067-42.667-42.667-42.667h-597.333c-25.6 0-42.667 17.067-42.667 42.667v170.667c0 25.6-17.067 42.667-42.667 42.667s-42.667-17.067-42.667-42.667v-170.667c0-72.533 55.467-128 128-128h597.333c72.533 0 128 55.467 128 128v170.667c0 25.6-17.067 42.667-42.667 42.667zM482.133 290.133c4.267-4.267 8.533-8.533 12.8-8.533 4.267-4.267 12.8-4.267 17.067-4.267s12.8 0 17.067 4.267c4.267 4.267 8.533 4.267 12.8 8.533l213.333 213.333c17.067 17.067 17.067 42.667 0 59.733s-42.667 17.067-59.733 0l-140.8-140.8v409.6c0 25.6-17.067 42.667-42.667 42.667s-42.667-17.067-42.667-42.667v-409.6l-140.8 140.8c-17.067 17.067-42.667 17.067-59.733 0s-17.067-42.667 0-59.733l213.333-213.333z" />
<glyph unicode="&#xe93a;" glyph-name="user" horiz-adv-x="896" d="M448 850.411c116.895 0 211.872-94.977 211.872-211.872s-94.977-211.872-211.872-211.872c-116.895 0-211.872 94.977-211.872 211.872s94.977 211.872 211.872 211.872zM448 320c176.804 0 320 143.196 320 320s-143.196 320-320 320c-176.804 0-320-143.196-320-320s143.196-320 320-320zM678.61 320h-461.22c-118.977 0-217.39-92.4-217.39-207.2v-91c0-28 24.97-51.8 54.348-51.8s54.348 23.8 54.348 51.8v91c0 57.4 48.472 103.6 108.695 103.6h461.22c60.223 0 108.68-46.2 108.68-103.6v-91c0-28 24.985-51.8 54.362-51.8s54.348 23.8 54.348 51.8v91c0 114.8-96.944 207.2-217.39 207.2z" />
<glyph unicode="&#xe93b;" glyph-name="users-2" horiz-adv-x="1741" d="M290.133 699.564c66.172 0 120.020-55.423 120.020-123.531s-53.848-123.596-120.020-123.596c-66.172 0-120.020 55.488-120.020 123.596 0 68.043 53.848 123.531 120.020 123.531zM290.133 362.667c114.269 0 207.238 95.754 207.238 213.366s-92.97 213.301-207.238 213.301c-114.269 0-207.238-95.689-207.238-213.301s92.97-213.366 207.238-213.366zM85.79 40.673c0 96.188 71.248 174.49 158.848 174.49h150.144c4.476 0 8.953-0.205 13.367-0.683 12.434-1.161 24.744 3.413 33.821 12.493 8.766 8.875 13.616 21.094 13.616 34.202 0 24.030-16.724 44.646-38.173 46.899-7.461 0.819-14.983 1.229-22.63 1.229h-150.144c-134.912 0.068-244.645-120.491-244.645-268.629v-19.319h85.797v19.319zM497.371-64h91.925v121.486c0 113.835 86.263 206.505 192.376 206.505h177.455c106.047 0 192.376-92.67 192.376-206.505v-121.486h91.925v121.486c0 103.038-48.161 198.425-128.895 255.271-46.429 32.678-100.118 49.91-155.406 49.91h-177.388c-87.862 0-169.462-42.903-223.95-117.768-39.501-54.2-60.417-119.055-60.417-187.413v-121.486zM1455.446 309.337h-150.144c-4.228 0-8.393-0.205-12.559-0.41-23.128-1.365-41.22-22.118-41.22-47.172 0-12.971 4.912-25.463 13.429-34.27 8.642-8.943 19.895-13.449 31.583-12.698 2.922 0.205 5.844 0.341 8.766 0.341h150.144c87.6 0 158.848-78.234 158.848-174.49v-19.319h85.797v19.319c0 148.139-109.733 268.698-244.645 268.698zM1367.771 699.564c66.172 0 120.020-55.423 120.020-123.531s-53.848-123.596-120.020-123.596c-66.172 0-120.020 55.488-120.020 123.596 0 68.043 53.848 123.531 120.020 123.531zM1367.771 362.667c114.269 0 207.238 95.754 207.238 213.366s-92.97 213.301-207.238 213.301c-114.269 0-207.238-95.689-207.238-213.301s92.97-213.366 207.238-213.366zM870.4 860.143c106.488 0 193.071-89.213 193.071-198.846 0-109.488-86.583-198.701-193.071-198.701s-193.071 89.213-193.071 198.701c0 109.633 86.583 198.846 193.071 198.846zM870.4 362.667c159.943 0 290.133 133.964 290.133 298.63 0 164.739-130.12 298.703-290.133 298.703-159.943 0-290.133-133.964-290.133-298.703 0-164.594 130.191-298.63 290.133-298.63z" />
<glyph unicode="&#xe93c;" glyph-name="verify-call" horiz-adv-x="600" d="M512.98 143.765c0-18.565-15.289-33.599-34.167-33.599h-368.533c-18.878 0-34.179 15.035-34.179 33.599v690.899c0 18.565 15.301 33.611 34.179 33.611h368.533c18.878 0 34.167-15.047 34.167-33.611v-690.899zM294.553-20.943c-22.676 0-41.088 18.095-41.088 40.406s18.413 40.406 41.088 40.406c22.676 0 41.052-18.095 41.052-40.406s-18.376-40.406-41.052-40.406zM495.731 947.954h-402.369c-51.575 0-93.361-41.117-93.361-91.835v-826.344c0-50.706 41.787-91.811 93.361-91.811h402.369c51.562 0 93.386 41.105 93.386 91.811v826.356c0 50.706-41.823 91.823-93.386 91.823zM166.274 578.759c3.161 19.42 12.863 35.141 27.6 47.983 29.463 25.66 59.244 15.998 66.373-21.938 4.998-27.010 15.877-55.38-16.955-75.065-11.368-6.843-6.076-18.625-2.303-28.539 9.249-23.6 23.031-44.297 40.88-62.633 19.184-19.637 38.234-33.925 64.083-8.529 9.641 9.361 21.23 6.987 31.606-1.337 6.395-5.277 13.647-9.879 19.883-15.505 11.687-10.818 31.521-17.504 26.143-38.755-5.795-21.853-21.696-34.936-43.943-40.587-16.832-4.168-33.53-6.24-49.798 1.289-93.398 43.514-145.549 117.411-164.561 215.546-0.968 5.168-0.723 10.541-0.539 15.601 0.147 4.072 1.017 8.312 1.531 12.469z" />
<glyph unicode="&#xe93d;" glyph-name="wrong" d="M650.24 442.88l322.56 322.56c15.36 15.36 25.6 40.96 25.6 66.56s-10.24 46.080-25.6 61.44c-35.84 35.84-97.28 35.84-128 0l-322.56-322.56-327.68 322.56c-30.72 35.84-92.16 35.84-128 0s-35.84-92.16 0-128l322.56-322.56-322.56-322.56c-15.36-15.36-25.6-40.96-25.6-66.56s10.24-46.080 25.6-66.56c35.84-35.84 97.28-35.84 128 0l322.56 322.56 322.56-322.56c15.36-15.36 40.96-25.6 66.56-25.6s46.080 10.24 66.56 25.6c15.36 15.36 25.6 40.96 25.6 66.56s-10.24 46.080-25.6 66.56l-322.56 322.56z" />
<glyph unicode="&#xe93e;" glyph-name="file-text" d="M891.733 635.733c-4.267 4.267-4.267 8.533-8.533 12.8l-256 256c-4.267 4.267-8.533 8.533-12.8 8.533-4.267 4.267-12.8 4.267-17.067 4.267h-341.333c-72.533 0-128-55.467-128-128v-682.667c0-72.533 55.467-128 128-128h512c72.533 0 128 55.467 128 128v512c0 4.267 0 12.8-4.267 17.067zM640 772.267l110.933-110.933h-110.933v110.933zM768 64h-512c-25.6 0-42.667 17.067-42.667 42.667v682.667c0 25.6 17.067 42.667 42.667 42.667h298.667v-213.333c0-25.6 17.067-42.667 42.667-42.667h213.333v-469.333c0-25.6-17.067-42.667-42.667-42.667zM682.667 448h-341.333c-25.6 0-42.667-17.067-42.667-42.667s17.067-42.667 42.667-42.667h341.333c25.6 0 42.667 17.067 42.667 42.667s-17.067 42.667-42.667 42.667zM682.667 277.333h-341.333c-25.6 0-42.667-17.067-42.667-42.667s17.067-42.667 42.667-42.667h341.333c25.6 0 42.667 17.067 42.667 42.667s-17.067 42.667-42.667 42.667zM341.333 533.333h85.333c25.6 0 42.667 17.067 42.667 42.667s-17.067 42.667-42.667 42.667h-85.333c-25.6 0-42.667-17.067-42.667-42.667s17.067-42.667 42.667-42.667z" />
<glyph unicode="&#xe93f;" glyph-name="send" d="M981.333 878.933c0 4.267 0 8.533-4.267 12.8 0 0 0 4.267 0 4.267 0 4.267-4.267 8.533-8.533 12.8s-8.533 4.267-12.8 8.533c0 0-4.267 0-4.267 0-4.267 0-8.533 0-12.8 4.267 0-4.267 0-4.267 0-4.267-4.267 0-8.533 0-12.8-4.267l-853.333-298.667c-17.067-4.267-29.867-17.067-29.867-38.4 0-17.067 8.533-34.133 25.6-42.667l366.933-162.133 162.133-366.933c8.533-17.067 21.333-25.6 38.4-25.6 0 0 0 0 0 0 17.067 0 34.133 12.8 38.4 29.867l298.667 853.333c8.533 4.267 8.533 8.533 8.533 17.067 0-4.267 0-4.267 0 0zM776.533 772.267l-315.733-315.733-260.267 115.2 576 200.533zM635.733 136.533l-115.2 260.267 315.733 315.733-200.533-576z" />
<glyph unicode="&#xe940;" glyph-name="headphones" d="M512 874.667c-234.667 0-426.667-192-426.667-426.667v-298.667c0-72.533 55.467-128 128-128h42.667c72.533 0 128 55.467 128 128v128c0 72.533-55.467 128-128 128h-85.333v42.667c0 187.733 153.6 341.333 341.333 341.333s341.333-153.6 341.333-341.333v-42.667h-85.333c-72.533 0-128-55.467-128-128v-128c0-72.533 55.467-128 128-128h42.667c72.533 0 128 55.467 128 128v298.667c0 234.667-192 426.667-426.667 426.667zM256 320c25.6 0 42.667-17.067 42.667-42.667v-128c0-25.6-17.067-42.667-42.667-42.667h-42.667c-25.6 0-42.667 17.067-42.667 42.667v170.667h85.333zM853.333 149.333c0-25.6-17.067-42.667-42.667-42.667h-42.667c-25.6 0-42.667 17.067-42.667 42.667v128c0 25.6 17.067 42.667 42.667 42.667h85.333v-170.667z" />
<glyph unicode="&#xe941;" glyph-name="list" d="M896 661.333h-554.667c-25.6 0-42.667 17.067-42.667 42.667s17.067 42.667 42.667 42.667h554.667c25.6 0 42.667-17.067 42.667-42.667s-17.067-42.667-42.667-42.667zM896 405.333h-554.667c-25.6 0-42.667 17.067-42.667 42.667s17.067 42.667 42.667 42.667h554.667c25.6 0 42.667-17.067 42.667-42.667s-17.067-42.667-42.667-42.667zM896 149.333h-554.667c-25.6 0-42.667 17.067-42.667 42.667s17.067 42.667 42.667 42.667h554.667c25.6 0 42.667-17.067 42.667-42.667s-17.067-42.667-42.667-42.667zM128 661.333c-4.267 0-4.267 0-8.533 0s-4.267 0-8.533 4.267c-4.267 0-4.267 4.267-8.533 4.267s-4.267 4.267-4.267 4.267-4.267 4.267-4.267 4.267c0 4.267-4.267 4.267-4.267 8.533-4.267 4.267-4.267 4.267-4.267 8.533s0 4.267 0 8.533 0 12.8 4.267 17.067c4.267 4.267 4.267 8.533 8.533 12.8 12.8 12.8 29.867 17.067 46.933 8.533 4.267-4.267 8.533-4.267 12.8-8.533 8.533-8.533 12.8-17.067 12.8-29.867 0-4.267 0-4.267 0-8.533s0-4.267-4.267-8.533c0-4.267-4.267-4.267-4.267-8.533 0 0-4.267-4.267-4.267-4.267-8.533-8.533-17.067-12.8-29.867-12.8zM128 405.333c-4.267 0-4.267 0-8.533 0s-4.267 0-8.533 4.267c-4.267 0-4.267 4.267-8.533 4.267s-4.267 4.267-4.267 4.267c-8.533 8.533-12.8 17.067-12.8 29.867 0 4.267 0 12.8 4.267 17.067s4.267 8.533 8.533 12.8c0 0 4.267 4.267 4.267 4.267 4.267 0 4.267 4.267 8.533 4.267s4.267 0 8.533 4.267c12.8 4.267 29.867 0 38.4-12.8 4.267-4.267 8.533-8.533 8.533-12.8 4.267-4.267 4.267-12.8 4.267-17.067s0-4.267 0-8.533 0-4.267-4.267-8.533c0-4.267-4.267-4.267-4.267-8.533 0 0-4.267-4.267-4.267-4.267-8.533-8.533-17.067-12.8-29.867-12.8zM128 149.333c-4.267 0-12.8 0-17.067 4.267-4.267 0-8.533 4.267-12.8 8.533-8.533 8.533-12.8 17.067-12.8 29.867 0 4.267 0 12.8 4.267 17.067s4.267 8.533 8.533 12.8c12.8 12.8 29.867 17.067 46.933 8.533 4.267 0 8.533-4.267 12.8-8.533s8.533-8.533 8.533-12.8c4.267-4.267 4.267-12.8 4.267-17.067s0-12.8-4.267-17.067c-4.267-4.267-4.267-8.533-8.533-12.8-8.533-8.533-17.067-12.8-29.867-12.8z" />
<glyph unicode="&#xe942;" glyph-name="maximize" d="M810.667 21.333h-128c-25.6 0-42.667 17.067-42.667 42.667s17.067 42.667 42.667 42.667h128c25.6 0 42.667 17.067 42.667 42.667v128c0 25.6 17.067 42.667 42.667 42.667s42.667-17.067 42.667-42.667v-128c0-72.533-55.467-128-128-128zM341.333 21.333h-128c-72.533 0-128 55.467-128 128v128c0 25.6 17.067 42.667 42.667 42.667s42.667-17.067 42.667-42.667v-128c0-25.6 17.067-42.667 42.667-42.667h128c25.6 0 42.667-17.067 42.667-42.667s-17.067-42.667-42.667-42.667zM896 576c-25.6 0-42.667 17.067-42.667 42.667v128c0 25.6-17.067 42.667-42.667 42.667h-128c-25.6 0-42.667 17.067-42.667 42.667s17.067 42.667 42.667 42.667h128c72.533 0 128-55.467 128-128v-128c0-25.6-17.067-42.667-42.667-42.667zM128 576c-25.6 0-42.667 17.067-42.667 42.667v128c0 72.533 55.467 128 128 128h128c25.6 0 42.667-17.067 42.667-42.667s-17.067-42.667-42.667-42.667h-128c-25.6 0-42.667-17.067-42.667-42.667v-128c0-25.6-17.067-42.667-42.667-42.667z" />
<glyph unicode="&#xe943;" glyph-name="power" d="M512-21.333c-110.933 0-217.6 42.667-302.933 123.733-166.4 166.4-166.4 439.467 0 605.867 17.067 17.067 42.667 17.067 59.733 0s17.067-42.667 0-59.733c-132.267-132.267-132.267-349.867 0-482.133s349.867-132.267 482.133 0c132.267 132.267 132.267 349.867 0 482.133-17.067 17.067-17.067 42.667 0 59.733s42.667 17.067 59.733 0c166.4-166.4 166.4-435.2 0-601.6-81.067-85.333-187.733-128-298.667-128zM512 405.333c-25.6 0-42.667 17.067-42.667 42.667v426.667c0 25.6 17.067 42.667 42.667 42.667s42.667-17.067 42.667-42.667v-426.667c0-25.6-17.067-42.667-42.667-42.667z" />
<glyph unicode="&#xe944;" glyph-name="printer" d="M853.333 618.667h-42.667v256c0 25.6-17.067 42.667-42.667 42.667h-512c-25.6 0-42.667-17.067-42.667-42.667v-256h-42.667c-72.533 0-128-55.467-128-128v-213.333c0-72.533 55.467-128 128-128h42.667v-128c0-25.6 17.067-42.667 42.667-42.667h512c25.6 0 42.667 17.067 42.667 42.667v128h42.667c72.533 0 128 55.467 128 128v213.333c0 72.533-55.467 128-128 128zM298.667 832h426.667v-213.333h-426.667v213.333zM725.333 64h-426.667v256h426.667v-256zM896 277.333c0-25.6-17.067-42.667-42.667-42.667h-42.667v128c0 25.6-17.067 42.667-42.667 42.667h-512c-25.6 0-42.667-17.067-42.667-42.667v-128h-42.667c-25.6 0-42.667 17.067-42.667 42.667v213.333c0 25.6 17.067 42.667 42.667 42.667h682.667c25.6 0 42.667-17.067 42.667-42.667v-213.333z" />
<glyph unicode="&#xe945;" glyph-name="flag" d="M870.4 870.4c-17.067 8.533-34.133 4.267-46.933-8.533 0 0-38.4-29.867-140.8-29.867-55.467 0-102.4 21.333-153.6 38.4-55.467 25.6-115.2 46.933-187.733 46.933-136.533 0-192-46.933-200.533-55.467s-12.8-17.067-12.8-29.867v-810.667c0-25.6 17.067-42.667 42.667-42.667s42.667 17.067 42.667 42.667v277.333c17.067 8.533 59.733 21.333 128 21.333 55.467 0 102.4-21.333 153.6-38.4 55.467-21.333 115.2-46.933 187.733-46.933 136.533 0 192 46.933 200.533 55.467s12.8 17.067 12.8 29.867v512c0 17.067-8.533 29.867-25.6 38.4zM810.667 341.333c-17.067-8.533-59.733-21.333-128-21.333-55.467 0-102.4 21.333-153.6 38.4-55.467 25.6-115.2 46.933-187.733 46.933-55.467 0-98.133-8.533-128-17.067v422.4c17.067 8.533 59.733 21.333 128 21.333 55.467 0 102.4-21.333 153.6-38.4 55.467-25.6 115.2-46.933 187.733-46.933 55.467 0 98.133 8.533 128 17.067v-422.4z" />
<glyph unicode="&#xe946;" glyph-name="settings" d="M512 618.667c-93.867 0-170.667-76.8-170.667-170.667s76.8-170.667 170.667-170.667c93.867 0 170.667 76.8 170.667 170.667s-76.8 170.667-170.667 170.667zM512 362.667c-46.933 0-85.333 38.4-85.333 85.333s38.4 85.333 85.333 85.333c46.933 0 85.333-38.4 85.333-85.333s-38.4-85.333-85.333-85.333zM866.133 302.933c4.267 8.533 12.8 17.067 29.867 17.067 72.533 0 128 55.467 128 128s-55.467 128-128 128h-8.533c-8.533 0-17.067 4.267-21.333 12.8 0 4.267 0 4.267-4.267 8.533-4.267 8.533-4.267 21.333 8.533 34.133 51.2 51.2 51.2 132.267 0 179.2v0c0 0 0 0 0 0-25.6 25.6-55.467 38.4-89.6 38.4 0 0 0 0 0 0-34.133 0-68.267-12.8-93.867-38.4-8.533-8.533-21.333-8.533-29.867-4.267-8.533 0-17.067 12.8-17.067 25.6 0 72.533-55.467 128-128 128s-128-55.467-128-128v-8.533c0-8.533-4.267-17.067-12.8-21.333-4.267 0-4.267 0-8.533-4.267-8.533-4.267-21.333 0-34.133 8.533-51.2 51.2-132.267 51.2-179.2 0-51.2-51.2-51.2-132.267 4.267-183.467 8.533-8.533 8.533-21.333 4.267-34.133-4.267-8.533-17.067-17.067-29.867-17.067-72.533 0-128-55.467-128-128s55.467-128 128-128h8.533c12.8 0 21.333-8.533 25.6-17.067s4.267-21.333-8.533-34.133c-25.6-25.6-38.4-55.467-38.4-89.6s12.8-64 38.4-89.6c0 0 0 0 0 0 51.2-51.2 132.267-51.2 183.467 4.267 8.533 8.533 21.333 8.533 34.133 4.267s17.067-12.8 17.067-29.867c0-72.533 55.467-128 128-128s128 55.467 128 128v8.533c0 12.8 8.533 21.333 17.067 25.6s21.333 4.267 34.133-8.533c51.2-51.2 132.267-51.2 179.2 0 51.2 51.2 51.2 132.267-4.267 183.467-4.267 8.533-8.533 21.333-4.267 29.867 0 0 0 0 0 0zM789.333 337.067c-17.067-42.667-8.533-89.6 25.6-128 8.533-8.533 12.8-17.067 12.8-29.867s-4.267-21.333-12.8-29.867c-8.533-8.533-17.067-12.8-29.867-12.8 0 0 0 0 0 0-12.8 0-21.333 4.267-34.133 17.067-34.133 34.133-81.067 42.667-123.733 21.333-42.667-17.067-68.267-59.733-68.267-102.4v-8.533c0-25.6-17.067-42.667-42.667-42.667s-42.667 17.067-42.667 42.667c0 0 0 4.267 0 4.267 0 46.933-29.867 85.333-72.533 102.4-12.8 8.533-29.867 8.533-46.933 8.533-29.867 0-59.733-12.8-81.067-34.133-17.067-17.067-42.667-17.067-59.733 0 0 0 0 0 0 0v0c-8.533 8.533-12.8 17.067-12.8 29.867s4.267 21.333 17.067 34.133c34.133 34.133 42.667 81.067 21.333 123.733-17.067 42.667-59.733 68.267-102.4 68.267h-8.533c-25.6 0-42.667 17.067-42.667 42.667s17.067 42.667 42.667 42.667c0 0 4.267 0 4.267 0 46.933 0 85.333 29.867 102.4 72.533s8.533 89.6-25.6 128c-17.067 17.067-17.067 42.667 0 59.733s42.667 17.067 64-4.267c29.867-29.867 76.8-38.4 115.2-25.6 4.267 0 8.533 0 12.8 4.267 42.667 17.067 68.267 59.733 68.267 102.4v8.533c0 25.6 17.067 42.667 42.667 42.667s42.667-17.067 42.667-46.933c0-46.933 25.6-85.333 68.267-102.4s89.6-8.533 128 25.6c8.533 8.533 17.067 12.8 29.867 12.8v0c12.8 0 21.333-4.267 29.867-12.8 0 0 0 0 0 0 17.067-17.067 17.067-42.667-4.267-64-29.867-29.867-38.4-76.8-25.6-115.2 0-4.267 0-8.533 4.267-12.8 17.067-42.667 59.733-68.267 102.4-68.267h8.533c25.6 0 42.667-17.067 42.667-42.667s-17.067-42.667-46.933-42.667c-42.667 0-85.333-25.6-102.4-68.267z" />
<glyph unicode="&#xe947;" glyph-name="users" d="M725.333 21.333c-25.6 0-42.667 17.067-42.667 42.667v85.333c0 72.533-55.467 128-128 128h-341.333c-72.533 0-128-55.467-128-128v-85.333c0-25.6-17.067-42.667-42.667-42.667s-42.667 17.067-42.667 42.667v85.333c0 119.467 93.867 213.333 213.333 213.333h341.333c119.467 0 213.333-93.867 213.333-213.333v-85.333c0-25.6-17.067-42.667-42.667-42.667zM384 448c-119.467 0-213.333 93.867-213.333 213.333s93.867 213.333 213.333 213.333 213.333-93.867 213.333-213.333-93.867-213.333-213.333-213.333zM384 789.333c-72.533 0-128-55.467-128-128s55.467-128 128-128 128 55.467 128 128-55.467 128-128 128zM981.333 21.333c-25.6 0-42.667 17.067-42.667 42.667v85.333c0 59.733-38.4 110.933-93.867 123.733-21.333 4.267-38.4 29.867-29.867 51.2 4.267 21.333 29.867 38.4 51.2 29.867 93.867-25.6 157.867-110.933 162.133-204.8v-85.333c-4.267-25.6-21.333-42.667-46.933-42.667zM682.667 452.267c-17.067 0-38.4 12.8-42.667 34.133s8.533 46.933 29.867 51.2c46.933 12.8 81.067 46.933 93.867 93.867 17.067 68.267-25.6 136.533-93.867 157.867-21.333 0-34.133 25.6-29.867 46.933s29.867 38.4 51.2 29.867c115.2-29.867 183.467-145.067 153.6-260.267-21.333-76.8-76.8-136.533-153.6-153.6 0 0-4.267 0-8.533 0z" />
<glyph unicode="&#xe948;" glyph-name="up-arrow" horiz-adv-x="2048" d="M1023.972 792.115l896.647-835.707c29.164-27.216 76.303-27.112 105.429 0.035 29.35 27.355 29.164 71.151 0.075 98.263l-949.492 884.96c-14.582 13.556-33.602 20.334-52.659 20.334-19.132 0.035-38.114-6.813-52.658-20.334l-949.492-884.96c-29.164-27.181-29.052-71.117 0.075-98.263 29.313-27.32 76.34-27.181 105.391-0.035l896.685 835.707z" />
<glyph unicode="&#xe949;" glyph-name="down-arrow" horiz-adv-x="2048" d="M1024.028 103.885l-896.647 835.707c-29.164 27.216-76.303 27.112-105.429-0.035-29.35-27.355-29.164-71.151-0.075-98.263l949.492-884.96c14.582-13.556 33.602-20.334 52.659-20.334 19.132-0.035 38.114 6.813 52.658 20.334l949.492 884.96c29.164 27.181 29.052 71.117-0.075 98.263-29.313 27.32-76.34 27.181-105.391 0.035l-896.685-835.707z" />
<glyph unicode="&#xe94a;" glyph-name="trash" horiz-adv-x="931" d="M744.727 75.636c0-25.693-20.852-46.545-46.545-46.545h-465.455c-25.693 0-46.545 20.852-46.545 46.545v605.091h558.545v-605.091zM325.818 820.364c0 25.647 20.852 46.545 46.545 46.545h186.182c25.693 0 46.545-20.899 46.545-46.545v-46.545h-279.273v46.545zM884.364 773.818h-186.182v46.545c0 76.986-62.65 139.636-139.636 139.636h-186.182c-76.986 0-139.636-62.65-139.636-139.636v-46.545h-186.182c-25.74 0-46.545-20.852-46.545-46.545 0-25.74 20.806-46.545 46.545-46.545h46.545v-605.091c0-76.986 62.65-139.636 139.636-139.636h465.455c76.986 0 139.636 62.65 139.636 139.636v605.091h46.545c25.74 0 46.545 20.806 46.545 46.545 0 25.693-20.806 46.545-46.545 46.545zM372.364 541.091c-25.74 0-46.545-20.852-46.545-46.545v-279.273c0-25.74 20.806-46.545 46.545-46.545 25.693 0 46.545 20.806 46.545 46.545v279.273c0 25.693-20.852 46.545-46.545 46.545zM605.091 541.091c-25.74 0-46.545-20.852-46.545-46.545v-279.273c0-25.74 20.806-46.545 46.545-46.545s46.545 20.806 46.545 46.545v279.273c0 25.693-20.806 46.545-46.545 46.545z" />
<glyph unicode="&#xe94b;" glyph-name="light-copy-2" horiz-adv-x="853" d="M101.583 601.32c51.184 91.881 139.798 158.265 243.718 178.465 181.926 35.363 360.362-77.43 412.018-254.138l-76.898 41.541c-6.224 4.252-14.562 2.632-18.74-3.643-4.105-6.166-2.465-14.605 3.669-18.875l105.566-61.208c1.18-0.806 3.454-1.495 4.724-2.284 3.35-0.479 6.398 0.114 10.401 2.022 1.868 1.399 2.732 2.697 3.525 3.887l62.055 93.79c1.657 2.488 2.907 7.063 2.29 10.239s-2.311 6.143-5.959 8.636c-6.224 4.252-14.562 2.632-18.74-3.643l-45.273-68.585c-53.649 192.706-245.924 315.9-443.541 277.487-112.258-21.821-208.31-93.983-262.473-193.035zM727.358 246.745c-51.184-91.881-139.798-158.265-243.718-178.465-181.926-35.363-360.362 77.43-412.018 254.138l69.77-33.867c6.224-4.252 14.562-2.632 18.74 3.643 1.657 2.488 2.907 7.063 2.29 10.239s-2.311 6.143-5.959 8.636l-98.438 53.533c-1.198 0.897-3.454 1.495-4.724 2.284-3.35 0.479-6.398-0.114-10.401-2.022-1.868-1.399-2.75-2.606-3.525-3.887l-48.761-101.734c-4.195-6.183-2.555-14.623 3.669-18.875s14.562-2.632 18.74 3.643l31.98 76.529c53.649-192.706 245.924-315.9 443.541-277.487 112.258 21.821 208.31 93.983 262.473 193.035zM498.261 483.271h-167.232v61.473c0 45.579 37.532 82.572 83.57 82.572 46.13 0 83.662-36.993 83.662-82.572v-61.473zM298.859 272.547v185.331h231.573v-185.331h-231.573zM305.33 483.271h-19.321c-7.488 0-12.942-6.394-12.942-12.696v-211.82c0-7.399 6.471-12.788 12.942-12.788h257.273c7.488 0 12.85 6.394 12.85 12.788v211.82c0 7.399-6.379 12.696-12.85 12.696h-19.321v61.473c0 60.376-49.273 108.056-109.362 108.056-59.996 0-109.269-47.68-109.269-108.056v-61.473zM448.443 348.284c0-22.287-18.19-40.281-40.72-40.281s-40.628 17.994-40.628 40.281c0 22.196 18.098 40.19 40.628 40.19s40.72-17.994 40.72-40.19zM474.112 348.284c0 35.988-29.917 65.583-66.389 65.583-36.38 0-66.389-29.595-66.389-65.583 0-36.080 30.009-65.766 66.389-65.766 36.473 0 66.389 29.686 66.389 65.766z" />
<glyph unicode="&#xe94c;" glyph-name="look" horiz-adv-x="1747" d="M1296.059 68.808c-176.318 0-319.774 143.068-319.774 318.925s143.456 318.91 319.774 318.91c176.304 0 319.76-143.054 319.76-318.91 0.015-175.857-143.441-318.925-319.76-318.925zM851.481 712.969c-30.802 0-55.855 25-55.855 55.719 0 30.704 25.054 55.69 55.855 55.69 30.773 0 55.855-24.986 55.855-55.69 0-30.718-25.083-55.719-55.855-55.719zM406.919 68.808c-176.318 0-319.774 143.068-319.774 318.925s143.456 318.91 319.774 318.91c176.333 0 319.76-143.054 319.76-318.91s-143.427-318.925-319.76-318.925zM1296.059 793.515c-69.863 0-135.719-17.69-193.243-48.77-34.329 6.63-70.646 12.146-108.807 16.213 0.145 2.562 0.406 5.11 0.406 7.73 0 78.591-64.129 142.547-142.948 142.547s-142.948-63.956-142.948-142.547c0-2.548 0.261-5.009 0.392-7.513-38.553-3.995-75.19-9.424-109.722-15.967-57.307 30.791-122.786 48.307-192.314 48.307-224.35 0-406.866-182.038-406.866-405.768 0-223.744 182.517-405.782 406.866-405.782 224.335 0 406.852 182.038 406.852 405.782 0 7.803-0.276 15.547-0.697 23.249h76.83c-0.464-7.701-0.711-15.446-0.711-23.249 0-223.744 182.502-405.782 406.866-405.782 224.335 0 406.852 182.038 406.852 405.782 0.058 223.73-182.473 405.768-406.808 405.768zM419.068 461.884c-57.031 0-97.093-35.293-97.093-90.722 0-52.158 40.062-90.563 97.093-90.563 53.881 0 95.54 36.885 95.54 90.563 0 55.429-41.659 90.722-95.54 90.722zM1468.624 457.35c-8.725 0-17.196-4.029-25.224-12.172-23.347-24.444-49.636-40.292-78.791-47.643-2.232 23.638-10.424 42.978-24.678 58.020-14.267 15.042-31.92 22.563-53.123 22.563-23.36 0-42.877-8.355-58.564-25.052-15.675-16.626-23.537-37.606-23.537-62.841 0-27.667 9.105-50.075 27.38-67.167 18.262-17.092 44.918-25.645 79.932-25.645 69.343 0 129.251 26.89 179.598 80.598 9.461 10.575 14.267 21.941 14.267 34.185 0 12.215-3.665 22.79-10.97 31.739-7.305 8.991-16.030 13.417-26.289 13.417z" />
<glyph unicode="&#xe94d;" glyph-name="app" horiz-adv-x="647" d="M323.368 668.968c107.789 0 194.021-86.232 194.021-194.021s-86.232-194.021-194.021-194.021c-107.789 0-194.021 86.232-194.021 194.021s88.387 194.021 194.021 194.021zM0 151.579h646.737v646.737h-646.737v-646.737zM237.137 844.511v46.195h172.463v-46.195h-172.463zM646.737 798.316v92.391c0 39.266-28.025 69.293-64.674 69.293h-517.389c-34.493 0-64.674-30.027-64.674-69.293v-92.391h646.737zM280.253 5.293v46.195h86.232v-46.195h-86.232zM0 97.684v-92.391c0-39.266 30.181-69.293 64.674-69.293h517.389c36.648 0 64.674 30.027 64.674 69.293v92.391h-646.737z" />
<glyph unicode="&#xe94e;" glyph-name="right-arrow" horiz-adv-x="536" d="M23.786 883.3c0 17.882 7.862 35.765 23.586 48.538 28.827 22.992 68.137 17.882 91.723-7.664l366.893-434.287c20.965-22.992 20.965-58.757 0-81.748l-366.893-434.287c-23.586-28.101-65.517-30.656-91.723-7.664s-31.448 63.866-7.862 89.412l332.825 393.413-332.825 393.413c-10.483 12.773-15.724 25.546-15.724 40.874z" />
<glyph unicode="&#xe94f;" glyph-name="left-arrow" horiz-adv-x="536" d="M511.405 13.889c0-17.882-7.862-35.765-23.586-48.538-28.827-22.992-68.137-17.882-91.723 7.664l-366.893 434.287c-20.965 22.992-20.965 58.757 0 81.748l366.893 434.287c23.586 28.101 65.517 30.656 91.723 7.664s31.448-63.866 7.862-89.412l-332.825-393.413 332.825-393.413c10.483-12.773 15.724-25.546 15.724-40.874z" />
<glyph unicode="&#xe950;" glyph-name="burguer" d="M0 263.68h1024v52.663h-1024v-52.663zM0 579.657h1024v52.663h-1024v-52.663z" />
<glyph unicode="&#xe951;" glyph-name="facebook-circle" d="M512-64c-282.77 0-512 229.23-512 512s229.23 512 512 512c282.77 0 512-229.23 512-512s-229.23-512-512-512zM586.325 630.051h62.208v91.015l-93.226-0.004c0 0-58.609 1.352-95.978-43.85 0 0-25.448-22.335-25.835-87.732h-0.019v-68.258h-92.141v-96.637h92.141v-249.652h106.274v249.652h91.421l12.741 96.637h-104.162v68.258h-0.027c0.257 7.625 3.902 41.256 46.603 40.571z" />
<glyph unicode="&#xe952;" glyph-name="google-circle" d="M512-64c-282.77 0-512 229.23-512 512s229.23 512 512 512c282.77 0 512-229.23 512-512s-229.23-512-512-512zM853.333 459.378h-56.857v56.889h-56.905v-56.889h-56.905v-56.889h56.905v-56.889h56.905v56.889h56.857v56.889zM413.797 462.651v-76.091h118.54c-4.833-32.61-35.867-95.678-118.54-95.678-71.379 0-129.58 62.701-129.58 140.052s58.202 140.104 129.58 140.104c40.599 0 67.766-18.38 83.283-34.238l56.726 58.027c-36.427 36.129-83.589 57.974-140.010 57.974-115.539 0-208.997-99.197-208.997-221.867 0-122.618 93.459-221.867 208.997-221.867 120.626 0 200.603 90.059 200.603 216.826 0 14.598-1.475 25.679-3.307 36.759h-197.296z" />
<glyph unicode="&#xe953;" glyph-name="linkedin-circle" d="M512-64c-282.77 0-512 229.23-512 512s229.23 512 512 512c282.77 0 512-229.23 512-512s-229.23-512-512-512zM314.493 209.067h91.964v296.414h-91.964v-296.414zM360.5 652.8c-29.422 0-53.3-23.922-53.3-53.405s23.878-53.405 53.3-53.405c29.422 0 53.3 23.922 53.3 53.405s-23.878 53.405-53.3 53.405zM464.153 505.434v-296.367h91.864v146.618c0 38.64 7.393 76.113 55.198 76.113 47.156 0 47.805-44.247 47.805-78.589v-144.142h91.914v162.551c0 79.804-17.234 141.199-110.346 141.199-44.758 0-74.73-24.577-86.968-47.845h-1.249v40.463h-88.217z" />
<glyph unicode="&#xe954;" glyph-name="twitter-circle" d="M512-64c-282.77 0-512 229.23-512 512s229.23 512 512 512c282.77 0 512-229.23 512-512s-229.23-512-512-512zM410.694 209.067c206.121 0 318.824 170.734 318.824 318.745 0 4.839-0.076 9.675-0.334 14.465 21.91 15.798 40.91 35.584 55.883 58.009-20.065-8.9-41.69-14.916-64.322-17.634 23.136 13.882 40.86 35.825 49.277 61.962-21.625-12.803-45.648-22.175-71.16-27.215-20.493 21.801-49.531 35.402-81.797 35.402-61.884 0-112.021-50.175-112.021-111.981 0-8.792 0.985-17.309 2.875-25.584-93.115 4.742-175.746 49.292-230.978 117.057-9.598-16.533-15.17-35.758-15.17-56.267 0-38.86 19.757-73.156 49.883-93.264-18.375 0.579-35.689 5.615-50.766 14.029-0.027-0.504-0.027-0.949-0.027-1.431 0-54.279 38.645-99.565 89.861-109.815-9.348-2.549-19.28-3.957-29.489-3.957-7.231 0-14.243 0.749-21.072 2.068 14.292-44.56 55.656-76.936 104.661-77.844-38.342-30.063-86.665-47.955-139.173-47.955-9.023 0-17.92 0.526-26.716 1.568 49.58-31.81 108.468-50.357 171.76-50.357z" />
<glyph unicode="&#xe955;" glyph-name="youtube-circle" d="M464.213 345.6l160.427 85.333-160.427 85.333zM512 960c-283.307 0-512-228.693-512-512s228.693-512 512-512c283.307 0 512 228.693 512 512s-228.693 512-512 512zM750.933 366.080c0-68.267-20.48-122.88-81.92-122.88h-310.613c-58.027 0-85.333 54.613-85.333 122.88v129.707c0 68.267 23.893 122.88 85.333 122.88h314.027c61.44 0 78.507-54.613 78.507-122.88v-129.707z" />
<glyph unicode="&#xe956;" glyph-name="clock" d="M512 867.84c-230.4 0-419.84-189.44-419.84-419.84s189.44-419.84 419.84-419.84c230.4 0 419.84 189.44 419.84 419.84s-189.44 419.84-419.84 419.84zM512-64c-281.6 0-512 230.4-512 512s230.4 512 512 512 512-230.4 512-512-230.4-512-512-512zM691.2 335.36c-5.12 0-15.36 0-20.48 5.12l-189.44 92.16c-15.36 10.24-25.6 25.6-25.6 40.96v271.36c0 25.6 20.48 46.080 46.080 46.080s46.080-20.48 46.080-46.080v-245.76l163.84-76.8c25.6-10.24 30.72-40.96 20.48-61.44-5.12-15.36-20.48-25.6-40.96-25.6z" />
<glyph unicode="&#xe957;" glyph-name="comments" d="M157.538 857.6c-31.508 0-55.138-23.631-55.138-47.262v-512c0-31.508 23.631-55.138 55.138-55.138h614.4c15.754 0 23.631-7.877 39.385-15.754l118.154-118.154v701.046c0 31.508-23.631 47.262-47.262 47.262h-724.677zM937.354-48.246l-189.046 189.046h-590.769c-86.646 0-157.538 70.892-157.538 149.662v519.877c0 78.769 70.892 149.662 157.538 149.662h716.8c78.769 0 149.662-70.892 149.662-149.662v-819.2c0-23.631-15.754-39.385-31.508-47.262-7.877 0-15.754 0-15.754 0-15.754-7.877-31.508 0-39.385 7.877z" />
<glyph unicode="&#xe958;" glyph-name="facebook-like" d="M138.971 448c-29.257 0-43.886-21.943-43.886-43.886v-329.143c0-29.257 21.943-43.886 43.886-43.886h95.086v416.914h-95.086zM329.143 31.086h482.743c21.943 0 43.886 14.629 43.886 36.571l65.829 416.914c0 14.629 0 21.943-7.314 36.571s-21.943 14.629-29.257 21.943c0 0-7.314 0-7.314 0h-263.314c-29.257 0-43.886 21.943-43.886 43.886v190.171c0 43.886-29.257 73.143-65.829 87.771l-168.229-380.343v-453.486zM819.2-64v0h-680.229c-73.143 0-138.971 65.829-138.971 138.971v329.143c0 80.457 65.829 138.971 138.971 138.971h109.714l175.543 387.657c14.629 21.943 29.257 29.257 51.2 29.257 102.4 0 182.857-80.457 182.857-182.857v-138.971h219.429c7.314 0 14.629 0 21.943 0 36.571-7.314 73.143-21.943 95.086-58.514 21.943-29.257 29.257-65.829 29.257-102.4l-65.829-416.914c-14.629-73.143-73.143-124.343-138.971-124.343z" />
<glyph unicode="&#xe959;" glyph-name="shares" horiz-adv-x="1418" d="M653.785 306.215c110.277 0 181.169-23.631 181.169-23.631 23.631-7.877 31.508-23.631 31.508-47.262v-126.031l378.092 338.708-378.092 346.585v-133.908c0-23.631-23.631-47.262-47.262-47.262-409.6-55.138-575.015-291.446-638.031-448.985 181.169 110.277 354.462 141.785 472.615 141.785zM819.2-64c-7.877 0-15.754 0-23.631 7.877-15.754 7.877-31.508 23.631-31.508 47.262v204.8c-94.523 15.754-354.462 39.385-638.031-212.677-15.754-15.754-39.385-15.754-63.015-7.877-15.754 7.877-23.631 31.508-23.631 47.262 0 7.877 63.015 559.262 724.677 677.415l7.877 204.8c0 23.631 15.754 39.385 31.508 47.262s39.385 0 55.138-7.877l504.123-464.738c7.877-7.877 15.754-23.631 15.754-39.385s-7.877-31.508-15.754-39.385l-512-456.862c-7.877 0-23.631-7.877-31.508-7.877z" />
<glyph unicode="&#xe95a;" glyph-name="verify-sms" horiz-adv-x="600" d="M295.774 508.524l136.557 77.836c-3.969 1.703-8.33 2.739-12.9 2.739h-247.987c-4.471 0-8.698-0.905-12.545-2.548l136.875-78.026zM295.774 467.407l-155.961 90.469v-129.488c0-16.92 14.198-30.696 31.631-30.696h248c17.396 0 31.582 13.776 31.582 30.696v129.012l-155.251-89.993zM514.483 150.989c0-18.42-15.362-33.328-34.265-33.328h-369.598c-18.939 0-34.277 14.908-34.277 33.328v684.794c0 18.42 15.338 33.304 34.277 33.304h369.598c18.903 0 34.265-14.884 34.265-33.304v-684.794zM295.431-12.268c-22.737 0-41.186 17.92-41.186 40.031 0 22.099 18.449 40.055 41.186 40.055s41.199-17.956 41.199-40.055c0-22.111-18.462-40.031-41.199-40.031zM497.136 948.089h-403.496c-51.709 0-93.643-40.746-93.643-91.017v-819.045c0-50.307 41.934-91.053 93.643-91.053h403.496c51.746 0 93.668 40.758 93.668 91.053v819.057c0 50.259-41.934 91.005-93.668 91.005z" />
<glyph unicode="&#xe95b;" glyph-name="hide-password" d="M413.42 747.158c24.97 5.829 51.751 7.404 76.406 8.743 219.451 0 364.071-220.002 402.353-285.696-21.11-36.785-45.529-71.68-72.783-103.975-14.494-17.25-12.209-43.008 5.041-57.58 7.641-6.38 16.935-9.531 26.23-9.531 11.658 0 23.158 4.962 31.271 14.572 35.525 42.22 66.796 88.379 92.869 137.216 6.302 11.658 6.459 25.679 0.551 37.494-7.168 14.257-178.097 349.105-485.455 349.105-32.926 1.418-63.961-3.545-95.074-10.87-21.977-5.12-35.604-27.018-30.484-48.994s27.254-35.604 49.073-30.484zM489.842 184.43c-219.372 0-363.993 219.924-402.353 285.617 41.275 71.68 94.523 134.065 157.538 187.234l103.503-103.503c-17.329-27.412-26.073-59.313-24.891-92.475 1.497-43.559 19.929-83.968 51.83-113.664 30.484-28.357 69.79-43.796 111.143-43.796 1.969 0 3.938 0 5.908 0.079 29.145 1.024 56.478 10.24 80.581 25.285l94.996-95.074c-54.272-31.429-115.161-48.679-178.255-49.703zM409.498 492.812l102.873-102.873c-7.326-2.363-14.809-4.096-22.686-4.411-21.031-0.945-42.535 7.010-58.604 21.898-15.911 14.809-25.127 34.974-25.915 56.793-0.315 9.846 1.339 19.456 4.332 28.593zM967.735 49.971l-898.048 898.048c-15.99 15.99-41.748 15.99-57.738 0-15.99-15.911-15.99-41.748 0-57.738l175.34-175.262c-74.122-63.646-135.877-138.87-182.43-225.516-6.302-11.737-6.459-25.758-0.551-37.573 7.089-14.257 178.097-349.184 486.164-349.184 85.15 1.418 166.439 26.151 237.253 71.838l182.272-182.272c7.956-8.034 18.432-11.973 28.908-11.973 10.398 0 20.874 3.938 28.83 11.973 15.99 15.911 15.99 41.748 0 57.659z" />
<glyph unicode="&#xe95c;" glyph-name="show-password" horiz-adv-x="1365" d="M121.823 448.055c53.351-91.434 254.899-398.228 560.843-398.228 306.823 0 507.602 306.574 560.843 398.119-53.351 91.544-254.899 398.228-560.843 398.228-306.932 0-507.712-306.574-560.843-398.119zM682.667-64c-428.454 0-666.777 466.612-676.656 486.589-8.014 16.026-8.014 34.796 0 50.821 9.88 19.977 248.203 486.589 676.656 486.589s666.777-466.612 676.656-486.589c8.014-16.026 8.014-34.796 0-50.821-9.88-19.977-248.203-486.589-676.656-486.589zM682.722 618.694c-62.804 0-113.86-51.056-113.86-113.86 0-62.694 51.056-113.75 113.86-113.75 62.694 0 113.75 51.056 113.75 113.75 0 62.804-51.056 113.86-113.75 113.86zM682.722 277.333c-125.608 0-227.61 102.002-227.61 227.501s102.002 227.61 227.61 227.61c125.499 0 227.501-102.112 227.501-227.61s-102.002-227.501-227.501-227.501z" />
<glyph unicode="&#xe95d;" glyph-name="key1" horiz-adv-x="1804" d="M1647.174 638.293c-4.856-268.874 48.271-513.613-176.342-514.827-211.001-1.14-158.352 295.217-160.596 509.602 4.562 214.422 338.079 216.225 336.939 5.224zM1166.784 537.006l-1041.39-5.628c-74.871-0.405-160.816-160.816 56.991-159.639-0.883-163.355-28.734-279.212 155.041-278.219l0.956 176.968 142.936 0.772 2.465-173.547c183.775 0.993 153.863 133.554 154.635 276.49l527.52 6.254c-1.067-197.388 48.86-404.709 304.121-399.926 381.162 2.060 318.616 393.083 323.435 655.15 1.913 353.936-623.473 500.295-626.71-98.675z" />
<glyph unicode="&#xe95e;" glyph-name="password-recovery" horiz-adv-x="883" d="M122.296 756.949v152.512c-0.066 21.712-17.335 39.282-38.621 39.282-21.33 0.191-38.775-17.3-38.952-39.057v-0.338l0.662-258.876c0.364-21.453 17.479-38.663 38.51-38.719l253.793-0.675c21.33 0 38.621 17.637 38.621 39.394s-17.291 39.394-38.621 39.394l-172.248 0.675c147.233 146.141 382.72 142.866 526.003-7.316 143.261-150.182 140.050-390.397-7.183-536.538s-382.72-142.866-525.992 7.316c-36.932 38.719-65.335 85.035-83.31 135.843-7.316 20.451-29.495 30.986-49.545 23.524s-30.378-30.086-23.062-50.537c84.094-238.414 341.738-362.146 575.47-276.367s355.046 348.594 270.941 587.008c-84.094 238.403-341.738 362.146-575.47 276.356-55.846-20.485-107.167-52.057-150.996-92.88zM503.1 452.825h-131.090v23.186c0 36.952 29.363 66.914 65.589 66.914 36.237 0 65.611-29.962 65.611-66.914l-0.11-23.186zM437.555 591.043c-61.981-0.371-111.967-51.82-111.779-115.031v-23.186h-11.034c-12.745 0-23.073-10.535-23.073-23.524v-201.023c0-12.989 10.328-23.524 23.073-23.524h245.959c12.734 0 23.062 10.535 23.062 23.524v201.023c0 12.989-10.328 23.524-23.062 23.524h-11.034v23.186c0.177 63.346-50.008 114.851-112.11 115.031z" />
<glyph unicode="&#xe95f;" glyph-name="close" d="M14.841-49.135c9.894-9.893 22.261-14.865 34.628-14.865s24.734 4.971 34.628 14.865l427.903 427.893 427.903-427.893c9.894-9.893 22.261-14.865 34.628-14.865s24.734 4.971 34.628 14.865c19.787 19.787 19.787 49.467 0 69.254l-427.903 427.893 427.903 427.868c19.787 19.812 19.787 49.467 0 69.279-19.787 19.787-49.469 19.787-69.256 0l-427.903-427.918-427.903 427.918c-19.787 19.787-49.469 19.787-69.256 0-19.787-19.812-19.787-49.467 0-69.279l427.903-427.868-427.903-427.893c-19.787-19.787-19.787-49.467 0-69.254z" />
</font>
</defs>
</svg>
